STARTFONT 2.1
FONT -FontForge-Share Tech Mono-Book-R-Normal--64-610-75-75-P-341-ISO10646-1
SIZE 61 75 75
FONTBOUNDINGBOX 67 70 -2 -15
COMMENT "Generated by fontforge, http://fontforge.sourceforge.net"
COMMENT "Copyright (c) 2012, Carrois Type Design, Ralph du Carrois (post@carrois.com www.carrois.com), with Reserved Font Name 'Share'"
STARTPROPERTIES 41
FOUNDRY "FontForge"
FAMILY_NAME "Share Tech Mono"
WEIGHT_NAME "Book"
SLANT "R"
SETWIDTH_NAME "Normal"
ADD_STYLE_NAME ""
PIXEL_SIZE 64
POINT_SIZE 610
RESOLUTION_X 75
RESOLUTION_Y 75
SPACING "P"
AVERAGE_WIDTH 341
CHARSET_REGISTRY "ISO10646"
CHARSET_ENCODING "1"
FONTNAME_REGISTRY ""
CHARSET_COLLECTIONS "ISO10646-1"
FONT_NAME "ShareTechMono-Regular"
FACE_NAME "Share Tech Mono"
COPYRIGHT "Copyright (c) 2012, Carrois Type Design, Ralph du Carrois (post@carrois.com www.carrois.com), with Reserved Font Name 'Share'"
FONT_VERSION "1.003"
FONT_ASCENT 51
FONT_DESCENT 13
UNDERLINE_POSITION -9
UNDERLINE_THICKNESS 4
X_HEIGHT 31
CAP_HEIGHT 44
DEFAULT_CHAR 192
RAW_ASCENT 799
RAW_DESCENT 200
NORM_SPACE 34
RELATIVE_WEIGHT 40
RELATIVE_SETWIDTH 50
SUPERSCRIPT_X 0
SUPERSCRIPT_Y 22
SUPERSCRIPT_SIZE 38
SUBSCRIPT_X 0
SUBSCRIPT_Y 4
SUBSCRIPT_SIZE 38
FIGURE_WIDTH 34
AVG_LOWERCASE_WIDTH 349
AVG_UPPERCASE_WIDTH 340
ENDPROPERTIES
CHARS 268
STARTCHAR .null
ENCODING 0
SWIDTH 0 0
DWIDTH 0 0
BBX 1 1 0 0
BITMAP
00
ENDCHAR
STARTCHAR nonmarkingreturn
ENCODING 13
SWIDTH 539 0
DWIDTH 34 0
BBX 1 1 0 0
BITMAP
00
ENDCHAR
STARTCHAR space
ENCODING 32
SWIDTH 539 0
DWIDTH 34 0
BBX 1 1 0 0
BITMAP
00
ENDCHAR
STARTCHAR exclam
ENCODING 33
SWIDTH 539 0
DWIDTH 34 0
BBX 6 45 14 0
BITMAP
7C
7C
7C
7C
7C
7C
7C
7C
7C
7C
7C
7C
7C
7C
7C
7C
7C
7C
7C
7C
7C
7C
7C
7C
7C
7C
7C
7C
7C
7C
7C
00
00
00
00
00
00
00
00
FC
FC
FC
FC
FC
FC
ENDCHAR
STARTCHAR quotedbl
ENCODING 34
SWIDTH 539 0
DWIDTH 34 0
BBX 16 16 9 29
BITMAP
FC3F
FC3F
FC3F
FC3F
FC3F
FC3F
FC3F
FC3F
7C1F
7C1F
7C1F
7C1F
7C1E
781E
781E
781E
ENDCHAR
STARTCHAR numbersign
ENCODING 35
SWIDTH 539 0
DWIDTH 34 0
BBX 24 45 5 0
BITMAP
07C1F0
07C1F0
07C1F0
07C1F0
07C1F0
07C1F0
07C1F0
07C1F0
07C1F0
07C1F0
07C1F0
FFFFFF
FFFFFF
FFFFFF
FFFFFF
FFFFFF
07C1F0
07C1F0
07C1F0
07C1F0
07C1F0
07C1F0
07C1F0
07C1F0
07C1F0
07C1F0
07C1F0
07C1F0
07C1F0
FFFFFF
FFFFFF
FFFFFF
FFFFFF
FFFFFF
07C1F0
07C1F0
07C1F0
07C1F0
07C1F0
07C1F0
07C1F0
07C1F0
07C1F0
07C1F0
07C1F0
ENDCHAR
STARTCHAR dollar
ENCODING 36
SWIDTH 539 0
DWIDTH 34 0
BBX 21 57 7 -7
BITMAP
00F800
00F800
00F800
00F800
00F800
00F800
00F800
00FFF0
07FFF0
1FFFF0
3FFFF0
7FFFF0
7F0000
FE0000
FC0000
F80000
F80000
F80000
F80000
F80000
F80000
F80000
F80000
FC0000
FC0000
7F0000
7FFE00
3FFF80
1FFFC0
0FFFE0
01FFF0
0003F0
0001F0
0001F8
0001F8
0001F8
0001F8
0001F8
0001F8
0001F8
0001F8
0001F8
0001F0
0003F0
0007F0
7FFFE0
7FFFE0
7FFFC0
7FFF00
7FFC00
00F800
00F800
00F800
00F800
00F800
00F800
00F800
ENDCHAR
STARTCHAR percent
ENCODING 37
SWIDTH 539 0
DWIDTH 34 0
BBX 33 45 1 0
BITMAP
03F8000000
0FFE000000
1FFF000000
3FFF000000
3E0F800000
3C07800000
7C07800000
7C07800000
7C07C00000
7C07C00000
7C07C00000
7C07800000
7C07800000
3C0F800000
3E0F800000
3FFF800000
1FFF000000
0FFE000000
03F8000180
000000FF80
00007FFF80
003FFFFF80
1FFFFFFE00
FFFFFF0000
FFFF800000
FFC0000000
E0001FC000
00003FF000
0000FFF800
0000FFFC00
0001F87C00
0001F03E00
0001E03E00
0001E03E00
0001E03E00
0001E03E00
0001E03E00
0001E03E00
0001E03E00
0001F03E00
0001F87C00
0000FFFC00
0000FFF800
00007FF000
00001FC000
ENDCHAR
STARTCHAR ampersand
ENCODING 38
SWIDTH 539 0
DWIDTH 34 0
BBX 27 45 5 0
BITMAP
00FFE000
07FFE000
0FFFE000
1FFFE000
3FFFE000
3F000000
7E000000
7E000000
7E000000
7E000000
7E000000
7E000000
7E000000
7E000000
7E000000
3F000000
3F800000
1FFFFFE0
0FFFFFE0
0FFFFFE0
1FFFFFE0
3FFFFFE0
7F00FC00
7E00FC00
7C00FC00
FC00FC00
FC00FC00
FC00FC00
FC00FC00
FC00FC00
FC00FC00
FC00FC00
FC00FC00
FC00FC00
FC00FC00
FC00FC00
FC00FC00
FC00FC00
7E00FC00
7F00FC00
7FFFFC00
3FFFFC00
1FFFFC00
0FFFFC00
01FFFC00
ENDCHAR
STARTCHAR quotesingle
ENCODING 39
SWIDTH 539 0
DWIDTH 34 0
BBX 6 16 14 29
BITMAP
FC
FC
FC
FC
FC
FC
FC
FC
7C
7C
7C
7C
78
78
78
78
ENDCHAR
STARTCHAR parenleft
ENCODING 40
SWIDTH 539 0
DWIDTH 34 0
BBX 13 60 11 -8
BITMAP
01F8
03F0
07E0
0FC0
0F80
1F80
3F00
3E00
3E00
7E00
7C00
7C00
FC00
FC00
FC00
F800
F800
F800
F800
F800
F800
F800
F800
F800
F800
F800
F800
F800
F800
F800
F800
F800
F800
F800
F800
F800
F800
F800
F800
F800
F800
F800
F800
F800
F800
FC00
FC00
FC00
7C00
7C00
7E00
3E00
3E00
3F00
1F80
0F80
0FC0
07E0
03E0
01F8
ENDCHAR
STARTCHAR parenright
ENCODING 41
SWIDTH 539 0
DWIDTH 34 0
BBX 13 60 11 -8
BITMAP
FC00
7E00
3F00
1F00
1F80
0FC0
07C0
07E0
03E0
03E0
03F0
03F0
01F0
01F0
01F0
01F0
01F8
01F8
01F8
01F8
01F8
01F8
01F8
01F8
01F8
01F8
01F8
01F8
01F8
01F8
01F8
01F8
01F8
01F8
01F8
01F8
01F8
01F8
01F8
01F8
01F8
01F8
01F8
01F8
01F0
01F0
01F0
01F0
03F0
03F0
03E0
03E0
07E0
07C0
0FC0
1F80
1F00
3F00
7E00
FC00
ENDCHAR
STARTCHAR asterisk
ENCODING 42
SWIDTH 539 0
DWIDTH 34 0
BBX 26 24 4 22
BITMAP
003F0000
001F0000
001F0000
001F0000
001F0000
001F0000
201F0080
3C1F0780
7F1E3F80
7FFEFFC0
7FFFFFC0
BFFFFF80
03FFF000
003F8000
007FC000
00FFE000
01F3E000
03F1F000
07E1F800
0FE0FC00
1FC0FE00
1F807E00
07803C00
03003000
ENDCHAR
STARTCHAR plus
ENCODING 43
SWIDTH 539 0
DWIDTH 34 0
BBX 24 25 5 7
BITMAP
003E00
003E00
003E00
003E00
003E00
003E00
003E00
003E00
003E00
003E00
FFFFFF
FFFFFF
FFFFFF
FFFFFF
FFFFFF
003E00
003E00
003E00
003E00
003E00
003E00
003E00
003E00
003E00
003E00
ENDCHAR
STARTCHAR comma
ENCODING 44
SWIDTH 539 0
DWIDTH 34 0
BBX 9 15 13 -9
BITMAP
3F80
3F80
3F80
3F80
3F80
3F80
3F80
3F00
3F00
7E00
7E00
7C00
7C00
F800
F800
ENDCHAR
STARTCHAR hyphen
ENCODING 45
SWIDTH 539 0
DWIDTH 34 0
BBX 21 5 7 18
BITMAP
FFFFF8
FFFFF8
FFFFF8
FFFFF8
FFFFF8
ENDCHAR
STARTCHAR period
ENCODING 46
SWIDTH 539 0
DWIDTH 34 0
BBX 6 6 14 0
BITMAP
FC
FC
FC
FC
FC
FC
ENDCHAR
STARTCHAR slash
ENCODING 47
SWIDTH 539 0
DWIDTH 34 0
BBX 28 59 3 -7
BITMAP
000001F0
000003F0
000003E0
000003E0
000007E0
000007C0
00000FC0
00000F80
00000F80
00001F80
00001F00
00001F00
00003F00
00003E00
00007E00
00007C00
00007C00
0000FC00
0000F800
0001F800
0001F000
0001F000
0003F000
0003E000
0003E000
0007E000
0007C000
000FC000
000F8000
000F8000
001F8000
001F0000
003F0000
003E0000
003E0000
007E0000
007C0000
00FC0000
00FC0000
00F80000
01F80000
01F00000
01F00000
03F00000
03E00000
07E00000
07C00000
07C00000
0FC00000
0F800000
1F800000
1F000000
1F000000
3F000000
3E000000
3E000000
7E000000
7C000000
FC000000
ENDCHAR
STARTCHAR zero
ENCODING 48
SWIDTH 539 0
DWIDTH 34 0
BBX 23 45 6 0
BITMAP
01FF00
0FFFC0
1FFFE0
3FFFF0
7FFFF8
7F01FC
FE00FC
FC007C
F8007C
F8007E
F8007E
F800FE
F801FE
F801FE
F803FE
F807FE
F807FE
F80FFE
F81FFE
F81F7E
F83F7E
F87E7E
F87C7E
F8FC7E
F9F87E
FBF07E
FBE07E
FFE07E
FFC07E
FF807E
FF807E
FF007E
FE007E
FE007E
FC007E
F8007E
F8007E
FC007C
7E00FC
7F01FC
7FFFF8
3FFFF0
1FFFE0
0FFFC0
01FF00
ENDCHAR
STARTCHAR one
ENCODING 49
SWIDTH 539 0
DWIDTH 34 0
BBX 21 45 7 0
BITMAP
01FC00
0FFC00
3FFC00
FFFC00
FFFC00
FF7C00
F87C00
C07C00
807C00
007C00
007C00
007C00
007C00
007C00
007C00
007C00
007C00
007C00
007C00
007C00
007C00
007C00
007C00
007C00
007C00
007C00
007C00
007C00
007C00
007C00
007C00
007C00
007C00
007C00
007C00
007C00
007C00
007C00
007C00
007C00
FFFFF8
FFFFF8
FFFFF8
FFFFF8
FFFFF8
ENDCHAR
STARTCHAR two
ENCODING 50
SWIDTH 539 0
DWIDTH 34 0
BBX 21 45 7 0
BITMAP
7FF000
7FFE00
7FFF00
7FFF80
7FFFC0
001FE0
0007E0
0007E0
0003E0
0003F0
0003F0
0003F0
0003F0
0003F0
0003F0
0003F0
0003E0
0003E0
0003E0
0007E0
0007E0
000FC0
001FC0
001F80
003F80
007F00
007E00
00FE00
01FC00
01F800
03F000
07F000
07E000
0FC000
1FC000
3F8000
3F0000
7F0000
FE0000
FC0000
FFFFF8
FFFFF8
FFFFF8
FFFFF8
FFFFF8
ENDCHAR
STARTCHAR three
ENCODING 51
SWIDTH 539 0
DWIDTH 34 0
BBX 19 45 8 0
BITMAP
FFF000
FFFC00
FFFF00
FFFF00
FFFF80
001F80
000FC0
000FC0
0007C0
0007C0
0007C0
0007C0
0007C0
0007C0
0007C0
0007C0
000FC0
000FC0
001F80
3FFF80
3FFF00
3FFE00
3FFF00
3FFF80
001FC0
000FC0
0007E0
0007E0
0007E0
0007E0
0007E0
0007E0
0007E0
0007E0
0007E0
0007E0
0007E0
0007E0
0007C0
000FC0
FFFFC0
FFFF80
FFFF00
FFFE00
FFF800
ENDCHAR
STARTCHAR four
ENCODING 52
SWIDTH 539 0
DWIDTH 34 0
BBX 23 45 6 0
BITMAP
03F000
03E000
03E000
03E000
07E000
07C000
07C000
07C000
0FC000
0FC000
0F8000
0F8000
1F8000
1F8000
1F0000
1F0000
1F07C0
3F07C0
3F07C0
3E07C0
3E07C0
7E07C0
7E07C0
7E07C0
7C07C0
FC07C0
FC07C0
FC07C0
F807C0
F807C0
FFFFFE
FFFFFE
FFFFFE
FFFFFE
FFFFFE
0007C0
0007C0
0007C0
0007C0
0007C0
0007C0
0007C0
0007C0
0007C0
0007C0
ENDCHAR
STARTCHAR five
ENCODING 53
SWIDTH 539 0
DWIDTH 34 0
BBX 19 45 8 0
BITMAP
FFFFC0
FFFFC0
FFFFC0
FFFFC0
FFFFC0
FC0000
FC0000
FC0000
FC0000
FC0000
FC0000
FC0000
FC0000
FC0000
FC0000
FC0000
FC0000
FC0000
FFF000
FFFE00
FFFF00
FFFF80
FFFFC0
001FC0
000FC0
0007E0
0007E0
0007E0
0007E0
0007E0
0007E0
0007E0
0007E0
0007E0
0007E0
0007E0
0007E0
0007E0
0007E0
000FC0
FFFFC0
FFFF80
FFFF00
FFFE00
FFF000
ENDCHAR
STARTCHAR six
ENCODING 54
SWIDTH 539 0
DWIDTH 34 0
BBX 23 45 6 0
BITMAP
01FFF0
07FFF0
1FFFF0
3FFFF0
3FFFF0
7F0000
7E0000
7C0000
FC0000
FC0000
FC0000
FC0000
FC0000
FC0000
FC0000
FC0000
FC0000
FFFF00
FFFFE0
FFFFF0
FFFFF8
FFFFFC
FC01FC
FC007C
FC007C
FC007E
FC007E
FC007E
FC007E
FC007E
FC007E
FC007E
FC007E
FC007E
FC007E
FC007E
FC007E
7C007C
7E00FC
7F01FC
3FFFF8
3FFFF0
1FFFE0
07FFC0
01FF00
ENDCHAR
STARTCHAR seven
ENCODING 55
SWIDTH 539 0
DWIDTH 34 0
BBX 20 45 7 0
BITMAP
FFFFF0
FFFFF0
FFFFF0
FFFFF0
FFFFF0
0001F0
0001F0
0003F0
0003F0
0003F0
0007E0
0007E0
0007E0
0007C0
000FC0
000FC0
000FC0
001F80
001F80
001F80
001F00
003F00
003F00
003E00
007E00
007E00
007E00
007C00
00FC00
00FC00
00F800
01F800
01F800
01F800
01F000
03F000
03F000
03E000
07E000
07E000
07E000
0FC000
0FC000
0FC000
1F8000
ENDCHAR
STARTCHAR eight
ENCODING 56
SWIDTH 539 0
DWIDTH 34 0
BBX 24 45 5 0
BITMAP
00FF80
07FFE0
0FFFF8
1FFFFC
3FFFFC
3F00FE
3E007E
7E003E
7E003E
7E003E
7E003E
7E003E
7E003E
7E003E
7E003E
7E003E
3E007E
3F007E
3F80FC
1FFFFC
0FFFF8
0FFFF0
1FFFFC
3FFFFC
3F00FE
7E007E
7E003F
7C003F
7C003F
FC003F
FC003F
FC003F
FC003F
FC003F
FC003F
7C003F
7C003F
7C003F
7E003F
7F007E
3FFFFE
3FFFFC
1FFFFC
0FFFF0
01FFC0
ENDCHAR
STARTCHAR nine
ENCODING 57
SWIDTH 539 0
DWIDTH 34 0
BBX 23 45 6 0
BITMAP
01FF00
07FFC0
1FFFE0
3FFFF0
3FFFF8
7F01FC
7E00FC
FC007C
FC007C
FC007E
FC007E
FC007E
FC007E
FC007E
FC007E
FC007E
FC007E
FC007E
FC007E
FC007E
FC007E
7C007E
7E007E
7FFFFE
3FFFFE
1FFFFE
0FFFFE
01FFFE
00007E
00007E
00007E
00007E
00007E
00007E
00007E
00007E
00007C
00007C
0000FC
0001FC
0FFFF8
0FFFF0
0FFFE0
0FFFC0
0FFE00
ENDCHAR
STARTCHAR colon
ENCODING 58
SWIDTH 539 0
DWIDTH 34 0
BBX 6 32 14 0
BITMAP
FC
FC
FC
FC
FC
FC
00
00
00
00
00
00
00
00
00
00
00
00
00
00
00
00
00
00
00
00
FC
FC
FC
FC
FC
FC
ENDCHAR
STARTCHAR semicolon
ENCODING 59
SWIDTH 539 0
DWIDTH 34 0
BBX 9 40 13 -8
BITMAP
3F80
3F80
3F80
3F80
3F80
3F80
0000
0000
0000
0000
0000
0000
0000
0000
0000
0000
0000
0000
0000
0000
0000
0000
0000
0000
0000
3F80
3F80
3F80
3F80
3F80
3F80
3F80
3F00
3F00
7E00
7E00
7C00
7C00
F800
F800
ENDCHAR
STARTCHAR less
ENCODING 60
SWIDTH 539 0
DWIDTH 34 0
BBX 24 29 5 7
BITMAP
000001
000007
00001F
00007F
0001FF
0007FF
003FFE
00FFF8
03FFC0
0FFF00
3FFC00
FFE000
FF8000
FE0000
F80000
FE0000
FF8000
FFE000
7FFC00
1FFF00
07FFC0
00FFF0
003FFE
000FFF
0003FF
0000FF
00003F
000007
000001
ENDCHAR
STARTCHAR equal
ENCODING 61
SWIDTH 539 0
DWIDTH 34 0
BBX 24 18 5 11
BITMAP
FFFFFF
FFFFFF
FFFFFF
FFFFFF
FFFFFF
000000
000000
000000
000000
000000
000000
000000
000000
FFFFFF
FFFFFF
FFFFFF
FFFFFF
FFFFFF
ENDCHAR
STARTCHAR greater
ENCODING 62
SWIDTH 539 0
DWIDTH 34 0
BBX 24 29 5 7
BITMAP
800000
F00000
FC0000
FF0000
FFC000
FFF000
3FFC00
0FFF00
03FFC0
007FF0
001FFE
0007FF
0000FF
00003F
00000F
00003F
0000FF
0007FF
001FFF
007FF8
03FFE0
0FFF80
3FFE00
FFF800
FFE000
FF0000
FC0000
F00000
C00000
ENDCHAR
STARTCHAR question
ENCODING 63
SWIDTH 539 0
DWIDTH 34 0
BBX 18 45 8 0
BITMAP
FFF000
FFFC00
FFFF00
FFFF00
FFFF80
001FC0
000FC0
0007C0
0007C0
0007C0
0007C0
0007C0
0007C0
0007C0
000FC0
000FC0
000FC0
001F80
003F80
007F00
00FE00
01FC00
03F800
07F000
07E000
07C000
07C000
07C000
07C000
07C000
07C000
07C000
000000
000000
000000
000000
000000
000000
000000
0FE000
0FE000
0FE000
0FE000
0FE000
0FE000
ENDCHAR
STARTCHAR at
ENCODING 64
SWIDTH 539 0
DWIDTH 34 0
BBX 31 45 2 0
BITMAP
03FFFF80
1FFFFFE0
3FFFFFF8
7FFFFFF8
7E0000FC
F800007C
F800003C
F000003E
F000003E
F000003E
F007FC3E
F03FFC3E
F07FFC3E
F07FFC3E
F0FC3C3E
F0F83C3E
F0F03C3E
F0F03C3E
F0F03C3E
F0F03C3E
F0F03C3E
F0F03C3E
F0F03C3E
F0F03C3E
F0F03C3E
F0F03C3E
F0F03C3E
F0F03C3E
F0F03C3E
F0F03C3E
F0F07C3E
F0F87C3E
F0FFFC3E
F07FFE3C
F07FFFFC
F01F8FFC
F0000FF8
F00003E0
F8000000
F8000000
FC000000
7FFFF000
3FFFF000
1FFFF000
07FFF000
ENDCHAR
STARTCHAR A
ENCODING 65
SWIDTH 539 0
DWIDTH 34 0
BBX 29 45 3 0
BITMAP
001FC000
003FC000
003FE000
003FE000
003FE000
007FE000
007DF000
007DF000
0079F000
00F9F000
00F8F800
00F8F800
00F8F800
01F0F800
01F0F800
01F07C00
01F07C00
03F07C00
03E07C00
03E07E00
03E03E00
03E03E00
07C03E00
07C03F00
07C01F00
07C01F00
0FC01F00
0F801F80
0F801F80
0FFFFF80
1FFFFF80
1FFFFFC0
1FFFFFC0
1FFFFFC0
3F0007C0
3F0007C0
3E0007E0
3E0007E0
7E0003E0
7E0003E0
7E0003F0
7C0003F0
FC0003F0
FC0001F0
FC0001F8
ENDCHAR
STARTCHAR B
ENCODING 66
SWIDTH 539 0
DWIDTH 34 0
BBX 24 45 5 0
BITMAP
FFFF80
FFFFF0
FFFFF8
FFFFFC
FFFFFC
FC00FE
FC007E
FC003E
FC003E
FC003E
FC003E
FC003E
FC003E
FC003E
FC003E
FC003E
FC007E
FC007E
FC00FC
FFFFFC
FFFFF8
FFFFF0
FFFFFC
FFFFFC
FC00FE
FC007F
FC003F
FC003F
FC001F
FC001F
FC001F
FC001F
FC001F
FC001F
FC001F
FC001F
FC003F
FC003F
FC003F
FC007F
FFFFFE
FFFFFE
FFFFFC
FFFFF0
FFFFC0
ENDCHAR
STARTCHAR C
ENCODING 67
SWIDTH 539 0
DWIDTH 34 0
BBX 21 45 7 0
BITMAP
01FFF8
07FFF8
1FFFF8
3FFFF8
7FFFF8
7F0000
7E0000
FC0000
FC0000
FC0000
FC0000
FC0000
FC0000
FC0000
FC0000
FC0000
FC0000
FC0000
FC0000
FC0000
FC0000
FC0000
FC0000
FC0000
FC0000
FC0000
FC0000
FC0000
FC0000
FC0000
FC0000
FC0000
FC0000
FC0000
FC0000
FC0000
FC0000
FC0000
7E0000
7F0000
7FFFF8
3FFFF8
1FFFF8
07FFF8
01FFF8
ENDCHAR
STARTCHAR D
ENCODING 68
SWIDTH 539 0
DWIDTH 34 0
BBX 24 45 5 0
BITMAP
FFFF80
FFFFF0
FFFFFC
FFFFFC
FFFFFE
FC007F
FC003F
FC003F
FC001F
FC001F
FC001F
FC001F
FC001F
FC001F
FC001F
FC001F
FC001F
FC001F
FC001F
FC001F
FC001F
FC001F
FC001F
FC001F
FC001F
FC001F
FC001F
FC001F
FC001F
FC001F
FC001F
FC001F
FC001F
FC001F
FC001F
FC001F
FC001F
FC003F
FC003F
FC007F
FFFFFE
FFFFFE
FFFFFC
FFFFF8
FFFFC0
ENDCHAR
STARTCHAR E
ENCODING 69
SWIDTH 539 0
DWIDTH 34 0
BBX 21 45 7 0
BITMAP
FFFFF8
FFFFF8
FFFFF8
FFFFF8
FFFFF8
F80000
F80000
F80000
F80000
F80000
F80000
F80000
F80000
F80000
F80000
F80000
F80000
F80000
F80000
FFFFE0
FFFFE0
FFFFE0
FFFFE0
FFFFE0
F80000
F80000
F80000
F80000
F80000
F80000
F80000
F80000
F80000
F80000
F80000
F80000
F80000
F80000
F80000
F80000
FFFFF8
FFFFF8
FFFFF8
FFFFF8
FFFFF8
ENDCHAR
STARTCHAR F
ENCODING 70
SWIDTH 539 0
DWIDTH 34 0
BBX 21 45 7 0
BITMAP
FFFFF8
FFFFF8
FFFFF8
FFFFF8
FFFFF8
F80000
F80000
F80000
F80000
F80000
F80000
F80000
F80000
F80000
F80000
F80000
F80000
F80000
F80000
F80000
FFFFF0
FFFFF0
FFFFF0
FFFFF0
FFFFF0
F80000
F80000
F80000
F80000
F80000
F80000
F80000
F80000
F80000
F80000
F80000
F80000
F80000
F80000
F80000
F80000
F80000
F80000
F80000
F80000
ENDCHAR
STARTCHAR G
ENCODING 71
SWIDTH 539 0
DWIDTH 34 0
BBX 22 45 6 0
BITMAP
01FFF8
07FFF8
1FFFF8
3FFFF8
3FFFF8
7F0000
7E0000
FC0000
FC0000
FC0000
FC0000
FC0000
FC0000
FC0000
FC0000
FC0000
FC0000
FC0000
FC0000
FC0000
FC0000
FC0FFC
FC0FFC
FC0FFC
FC0FFC
FC0FFC
FC007C
FC007C
FC007C
FC007C
FC007C
FC007C
FC007C
FC007C
FC007C
FC007C
FC007C
FC007C
7E007C
7F007C
3FFFFC
3FFFFC
1FFFFC
07FFFC
01FFFC
ENDCHAR
STARTCHAR H
ENCODING 72
SWIDTH 539 0
DWIDTH 34 0
BBX 24 45 5 0
BITMAP
FC001F
FC001F
FC001F
FC001F
FC001F
FC001F
FC001F
FC001F
FC001F
FC001F
FC001F
FC001F
FC001F
FC001F
FC001F
FC001F
FC001F
FC001F
FC001F
FC001F
FFFFFF
FFFFFF
FFFFFF
FFFFFF
FFFFFF
FC001F
FC001F
FC001F
FC001F
FC001F
FC001F
FC001F
FC001F
FC001F
FC001F
FC001F
FC001F
FC001F
FC001F
FC001F
FC001F
FC001F
FC001F
FC001F
FC001F
ENDCHAR
STARTCHAR I
ENCODING 73
SWIDTH 539 0
DWIDTH 34 0
BBX 17 45 9 0
BITMAP
FFFF80
FFFF80
FFFF80
FFFF80
FFFF80
07E000
07E000
07E000
07E000
07E000
07E000
07E000
07E000
07E000
07E000
07E000
07E000
07E000
07E000
07E000
07E000
07E000
07E000
07E000
07E000
07E000
07E000
07E000
07E000
07E000
07E000
07E000
07E000
07E000
07E000
07E000
07E000
07E000
07E000
07E000
FFFF80
FFFF80
FFFF80
FFFF80
FFFF80
ENDCHAR
STARTCHAR J
ENCODING 74
SWIDTH 539 0
DWIDTH 34 0
BBX 18 45 8 0
BITMAP
3FFFC0
3FFFC0
3FFFC0
3FFFC0
3FFFC0
0007C0
0007C0
0007C0
0007C0
0007C0
0007C0
0007C0
0007C0
0007C0
0007C0
0007C0
0007C0
0007C0
0007C0
0007C0
0007C0
0007C0
0007C0
0007C0
0007C0
0007C0
0007C0
0007C0
0007C0
0007C0
0007C0
0007C0
0007C0
0007C0
0007C0
0007C0
0007C0
000FC0
001FC0
003F80
FFFF80
FFFF00
FFFE00
FFFC00
FFE000
ENDCHAR
STARTCHAR K
ENCODING 75
SWIDTH 539 0
DWIDTH 34 0
BBX 25 45 5 0
BITMAP
FC003F00
FC007E00
FC00FC00
FC00FC00
FC01F800
FC03F800
FC03F000
FC07E000
FC07E000
FC0FC000
FC1FC000
FC1F8000
FC3F0000
FC7F0000
FC7E0000
FCFC0000
FCFC0000
FDF80000
FFF80000
FFF00000
FFF00000
FFF00000
FFF80000
FFF80000
FFFC0000
FF7E0000
FE7E0000
FC3F0000
FC3F0000
FC1F8000
FC1F8000
FC0FC000
FC0FC000
FC07E000
FC07E000
FC03F000
FC03F000
FC01F800
FC01F800
FC00FC00
FC00FC00
FC007E00
FC007E00
FC003F00
FC003F80
ENDCHAR
STARTCHAR L
ENCODING 76
SWIDTH 539 0
DWIDTH 34 0
BBX 20 45 7 0
BITMAP
FC0000
FC0000
FC0000
FC0000
FC0000
FC0000
FC0000
FC0000
FC0000
FC0000
FC0000
FC0000
FC0000
FC0000
FC0000
FC0000
FC0000
FC0000
FC0000
FC0000
FC0000
FC0000
FC0000
FC0000
FC0000
FC0000
FC0000
FC0000
FC0000
FC0000
FC0000
FC0000
FC0000
FC0000
FC0000
FC0000
FC0000
FC0000
FC0000
FC0000
FFFFF0
FFFFF0
FFFFF0
FFFFF0
FFFFF0
ENDCHAR
STARTCHAR M
ENCODING 77
SWIDTH 539 0
DWIDTH 34 0
BBX 28 45 3 0
BITMAP
FF801FF0
FFC01FF0
FFC01FF0
FFC01FF0
FFC01FF0
FFE03FF0
FBE03FF0
FBE03FF0
FBE03DF0
FBE07DF0
F9F07DF0
F9F07DF0
F9F079F0
F9F079F0
F8F8F9F0
F8F8F9F0
F8F8F1F0
F8F8F1F0
F879F1F0
F87DF1F0
F87DE1F0
F87DE1F0
F83DE1F0
F83FC1F0
F83FC1F0
F83FC1F0
F81FC1F0
F81F81F0
F81F81F0
F81F81F0
F80001F0
F80001F0
F80001F0
F80001F0
F80001F0
F80001F0
F80001F0
F80001F0
F80001F0
F80001F0
F80001F0
F80001F0
F80001F0
F80001F0
F80001F0
ENDCHAR
STARTCHAR N
ENCODING 78
SWIDTH 539 0
DWIDTH 34 0
BBX 24 45 5 0
BITMAP
FF801F
FFC01F
FFC01F
FFC01F
FFC01F
FFE01F
FBE01F
FBE01F
FBE01F
FBF01F
F9F01F
F9F01F
F9F01F
F9F81F
F8F81F
F8F81F
F8F81F
F8FC1F
F87C1F
F87C1F
F87C1F
F87E1F
F83E1F
F83E1F
F83E1F
F83F1F
F81F1F
F81F1F
F81F1F
F81F9F
F80F9F
F80F9F
F80F9F
F80FDF
F807DF
F807DF
F807DF
F807FF
F803FF
F803FF
F803FF
F803FF
F801FF
F801FF
F801FF
ENDCHAR
STARTCHAR O
ENCODING 79
SWIDTH 539 0
DWIDTH 34 0
BBX 26 45 4 0
BITMAP
00FFE000
07FFF800
0FFFFE00
1FFFFF00
3FFFFF80
7F803F80
7E001F80
7E000FC0
7C000FC0
7C0007C0
FC0007C0
FC0007C0
FC0007C0
FC0007C0
FC0007C0
FC0007C0
FC0007C0
FC0007C0
FC0007C0
FC0007C0
FC0007C0
FC0007C0
FC0007C0
FC0007C0
FC0007C0
FC0007C0
FC0007C0
FC0007C0
FC0007C0
FC0007C0
FC0007C0
FC0007C0
FC0007C0
FC0007C0
FC0007C0
7C000FC0
7C000FC0
7E000FC0
7E001F80
7F803F80
3FFFFF80
1FFFFF00
0FFFFE00
07FFF800
00FFE000
ENDCHAR
STARTCHAR P
ENCODING 80
SWIDTH 539 0
DWIDTH 34 0
BBX 23 45 6 0
BITMAP
FFFF00
FFFFE0
FFFFF0
FFFFF8
FFFFFC
F800FC
F8007C
F8007E
F8007E
F8007E
F8007E
F8007E
F8007E
F8007E
F8007E
F8007E
F8007E
F8007E
F8007E
F8007E
F8007E
F800FC
F801FC
FFFFFC
FFFFF8
FFFFF0
FFFFC0
FFFE00
F80000
F80000
F80000
F80000
F80000
F80000
F80000
F80000
F80000
F80000
F80000
F80000
F80000
F80000
F80000
F80000
F80000
ENDCHAR
STARTCHAR Q
ENCODING 81
SWIDTH 539 0
DWIDTH 34 0
BBX 29 49 4 -4
BITMAP
00FFE000
07FFF800
0FFFFE00
1FFFFF00
3FFFFF80
7F803F80
7E001F80
7E000FC0
7C000FC0
7C0007C0
FC0007C0
FC0007C0
FC0007C0
FC0007C0
FC0007C0
FC0007C0
FC0007C0
FC0007C0
FC0007C0
FC0007C0
FC0007C0
FC0007C0
FC0007C0
FC0007C0
FC0007C0
FC0007C0
FC0007C0
FC0007C0
FC0007C0
FC0007C0
FC0007C0
FC0007C0
FC0007C0
FC0007C0
FC0007C0
7C000FC0
7C000FC0
7E000FC0
7E001F80
7F803F80
3FFFFF80
1FFFFFC0
0FFFFFE0
07FFFFF0
00FFE7F8
000003F8
000001F0
000000E0
00000040
ENDCHAR
STARTCHAR R
ENCODING 82
SWIDTH 539 0
DWIDTH 34 0
BBX 27 45 4 0
BITMAP
FFFF8000
FFFFE000
FFFFF800
FFFFFC00
FFFFFC00
FC00FE00
FC007E00
FC003E00
FC003E00
FC003E00
FC003F00
FC003F00
FC003F00
FC003F00
FC003F00
FC003F00
FC003F00
FC003E00
FC003E00
FC003E00
FC007E00
FC00FE00
FFFFFC00
FFFFF800
FFFFF000
FFFFC000
FFFFC000
FC07E000
FC07E000
FC03F000
FC03F000
FC03F000
FC01F800
FC01F800
FC00FC00
FC00FC00
FC007E00
FC007E00
FC003F00
FC003F00
FC001F80
FC001F80
FC001FC0
FC000FC0
FC000FE0
ENDCHAR
STARTCHAR S
ENCODING 83
SWIDTH 539 0
DWIDTH 34 0
BBX 22 45 6 0
BITMAP
00FFF8
07FFF8
0FFFF8
1FFFF8
3FFFF8
7F0000
7E0000
7C0000
7C0000
FC0000
FC0000
FC0000
FC0000
FC0000
FC0000
7C0000
7C0000
7E0000
7F0000
3FFE00
3FFFC0
1FFFE0
07FFF0
01FFF8
0001F8
0000FC
0000FC
0000FC
00007C
00007C
00007C
00007C
00007C
00007C
00007C
00007C
0000FC
0000FC
0001F8
0003F8
7FFFF8
7FFFF0
7FFFE0
7FFF80
7FFE00
ENDCHAR
STARTCHAR T
ENCODING 84
SWIDTH 539 0
DWIDTH 34 0
BBX 26 45 4 0
BITMAP
FFFFFFC0
FFFFFFC0
FFFFFFC0
FFFFFFC0
FFFFFFC0
003F0000
003F0000
003F0000
003F0000
003F0000
003F0000
003F0000
003F0000
003F0000
003F0000
003F0000
003F0000
003F0000
003F0000
003F0000
003F0000
003F0000
003F0000
003F0000
003F0000
003F0000
003F0000
003F0000
003F0000
003F0000
003F0000
003F0000
003F0000
003F0000
003F0000
003F0000
003F0000
003F0000
003F0000
003F0000
003F0000
003F0000
003F0000
003F0000
003F0000
ENDCHAR
STARTCHAR U
ENCODING 85
SWIDTH 539 0
DWIDTH 34 0
BBX 25 45 5 0
BITMAP
FC001F80
FC001F80
FC001F80
FC001F80
FC001F80
FC001F80
FC001F80
FC001F80
FC001F80
FC001F80
FC001F80
FC001F80
FC001F80
FC001F80
FC001F80
FC001F80
FC001F80
FC001F80
FC001F80
FC001F80
FC001F80
FC001F80
FC001F80
FC001F80
FC001F80
FC001F80
FC001F80
FC001F80
FC001F80
FC001F80
FC001F80
FC001F80
FC001F80
FC001F80
FC001F80
FC001F80
FC001F00
FC003F00
7E003F00
7F007F00
7FFFFE00
3FFFFC00
1FFFF800
07FFF000
01FF8000
ENDCHAR
STARTCHAR V
ENCODING 86
SWIDTH 539 0
DWIDTH 34 0
BBX 27 45 4 0
BITMAP
F80007E0
FC0007C0
FC0007C0
FC000FC0
7C000FC0
7C000F80
7C000F80
7E000F80
7E001F80
3E001F80
3E001F00
3E001F00
3F001F00
3F003F00
1F003E00
1F003E00
1F003E00
1F807E00
1F807E00
0F807C00
0F807C00
0F807C00
0FC0FC00
0FC0F800
07C0F800
07C0F800
07C0F800
07E1F800
03E1F000
03E1F000
03E1F000
03E1F000
03F3E000
01F3E000
01F3E000
01F3E000
01F7E000
01FFC000
00FFC000
00FFC000
00FFC000
00FF8000
00FF8000
007F8000
007F8000
ENDCHAR
STARTCHAR W
ENCODING 87
SWIDTH 539 0
DWIDTH 34 0
BBX 28 45 3 0
BITMAP
F80000F0
F80000F0
F80001F0
F80001F0
F80001F0
780001F0
780001F0
780001F0
780001F0
780001F0
7C0001F0
7C0001E0
7C0001E0
7C0001E0
7C0001E0
7C0001E0
7C0001E0
7C0001E0
7C0001E0
7C0F01E0
7C0F81E0
7C0F81E0
7C1F83E0
7C1F83E0
7C1FC3E0
7C1FC3E0
3C3FC3E0
3C3FC3E0
3C3FE3E0
3C3DE3E0
3C79E3E0
3E79E3E0
3E79F3C0
3E79F3C0
3EF0F3C0
3EF0F3C0
3EF0FBC0
3EF0FBC0
3FF07BC0
3FE07BC0
3FE07FC0
3FE07FC0
3FE07FC0
3FC03FC0
3FC03FC0
ENDCHAR
STARTCHAR X
ENCODING 88
SWIDTH 539 0
DWIDTH 34 0
BBX 28 45 3 0
BITMAP
7F0007F0
3F0007E0
3F8007C0
1F800FC0
1F800FC0
0FC01F80
0FC01F80
07E03F00
07E03F00
03F07E00
03F07E00
01F8FC00
01F8FC00
00FDF800
00FDF800
00FFF000
007FF000
007FE000
003FE000
003FC000
001FC000
001F8000
001FC000
001FC000
003FE000
003FE000
007FF000
007FF000
00FFF000
00FDF800
01F9F800
01F8FC00
03F0FC00
03F07E00
07E07E00
07E03F00
0FC03F00
0FC01F80
1F801F80
1F800FC0
3F000FC0
3F000FE0
7E0007E0
7E0007F0
FE0003F0
ENDCHAR
STARTCHAR Y
ENCODING 89
SWIDTH 539 0
DWIDTH 34 0
BBX 29 45 3 0
BITMAP
FC0001F8
7E0003F0
7E0003F0
7F0007E0
3F0007E0
3F000FC0
1F800FC0
1F801F80
0FC01F80
0FC01F00
07E03F00
07E03E00
03F07E00
03F07C00
01F0FC00
01F8F800
00F9F800
00FDF000
007DF000
007FE000
003FE000
003FC000
003FC000
001F8000
001F8000
001F8000
001F8000
001F8000
001F8000
001F8000
001F8000
001F8000
001F8000
001F8000
001F8000
001F8000
001F8000
001F8000
001F8000
001F8000
001F8000
001F8000
001F8000
001F8000
001F8000
ENDCHAR
STARTCHAR Z
ENCODING 90
SWIDTH 539 0
DWIDTH 34 0
BBX 23 45 6 0
BITMAP
7FFFFE
7FFFFE
7FFFFE
7FFFFE
7FFFFE
00007E
0000FC
0000FC
0001F8
0001F8
0003F0
0003F0
0007E0
0007E0
000FC0
000FC0
001F80
001F80
003F00
003F00
007E00
007E00
00FC00
00FC00
01F800
01F800
03F000
03F000
07E000
07E000
0FC000
0FC000
1F8000
3F8000
3F0000
7F0000
7E0000
FE0000
FC0000
FC0000
FFFFFC
FFFFFC
FFFFFC
FFFFFC
FFFFFC
ENDCHAR
STARTCHAR bracketleft
ENCODING 91
SWIDTH 539 0
DWIDTH 34 0
BBX 13 60 11 -8
BITMAP
FFF8
FFF8
FFF8
FFF8
FFF8
F800
F800
F800
F800
F800
F800
F800
F800
F800
F800
F800
F800
F800
F800
F800
F800
F800
F800
F800
F800
F800
F800
F800
F800
F800
F800
F800
F800
F800
F800
F800
F800
F800
F800
F800
F800
F800
F800
F800
F800
F800
F800
F800
F800
F800
F800
F800
F800
F800
F800
FFF8
FFF8
FFF8
FFF8
FFF8
ENDCHAR
STARTCHAR backslash
ENCODING 92
SWIDTH 539 0
DWIDTH 34 0
BBX 28 59 3 -7
BITMAP
FC000000
7C000000
7E000000
3E000000
3E000000
3F000000
1F000000
1F000000
1F800000
0F800000
0FC00000
07C00000
07C00000
07E00000
03E00000
03F00000
01F00000
01F00000
01F80000
00F80000
00F80000
00FC0000
007C0000
007E0000
003E0000
003E0000
003F0000
001F0000
001F8000
000F8000
000F8000
000FC000
0007C000
0007E000
0003E000
0003E000
0003F000
0001F000
0001F000
0001F800
0000F800
0000FC00
00007C00
00007C00
00007E00
00003E00
00003F00
00001F00
00001F00
00001F80
00000F80
00000F80
00000FC0
000007C0
000007E0
000003E0
000003E0
000003F0
000001F0
ENDCHAR
STARTCHAR bracketright
ENCODING 93
SWIDTH 539 0
DWIDTH 34 0
BBX 13 60 11 -8
BITMAP
FFF8
FFF8
FFF8
FFF8
FFF8
00F8
00F8
00F8
00F8
00F8
00F8
00F8
00F8
00F8
00F8
00F8
00F8
00F8
00F8
00F8
00F8
00F8
00F8
00F8
00F8
00F8
00F8
00F8
00F8
00F8
00F8
00F8
00F8
00F8
00F8
00F8
00F8
00F8
00F8
00F8
00F8
00F8
00F8
00F8
00F8
00F8
00F8
00F8
00F8
00F8
00F8
00F8
00F8
00F8
00F8
FFF8
FFF8
FFF8
FFF8
FFF8
ENDCHAR
STARTCHAR asciicircum
ENCODING 94
SWIDTH 539 0
DWIDTH 34 0
BBX 25 22 5 27
BITMAP
007F0000
00FF8000
00FF8000
01FF8000
01F7C000
03F7C000
03E7E000
03E3E000
07E3F000
07C3F000
0FC1F000
0F81F800
0F80F800
1F80FC00
1F00FC00
3F007C00
3E007E00
7E007E00
7E003F00
7C003F00
FC001F00
F8001F80
ENDCHAR
STARTCHAR underscore
ENCODING 95
SWIDTH 539 0
DWIDTH 34 0
BBX 32 5 1 -11
BITMAP
FFFFFFFF
FFFFFFFF
FFFFFFFF
FFFFFFFF
FFFFFFFF
ENDCHAR
STARTCHAR grave
ENCODING 96
SWIDTH 539 0
DWIDTH 34 0
BBX 14 9 10 37
BITMAP
FE00
7F00
3F80
1F80
0FC0
07E0
03F0
01F8
00FC
ENDCHAR
STARTCHAR a
ENCODING 97
SWIDTH 539 0
DWIDTH 34 0
BBX 26 32 4 0
BITMAP
1FFF8000
1FFFE000
1FFFF000
1FFFF800
1FFFFC00
0000FC00
00007E00
00007E00
00003E00
00003E00
00003E00
00003E00
01FFFE00
0FFFFE00
1FFFFE00
3FFFFE00
7FFFFE00
7F003E00
7E003E00
FC003E00
FC003E00
FC003E00
FC003E00
FC003E00
FC003E00
FC007E00
7E007E00
7FFFFFC0
7FFFFFC0
3FFFFFC0
1FFFEFC0
07FF87C0
ENDCHAR
STARTCHAR b
ENCODING 98
SWIDTH 539 0
DWIDTH 34 0
BBX 23 45 6 0
BITMAP
F80000
F80000
F80000
F80000
F80000
F80000
F80000
F80000
F80000
F80000
F80000
F80000
F80000
F9FF80
FFFFE0
FFFFF0
FFFFF8
FFFFFC
FE00FC
FC007E
F8007E
F8003E
F8003E
F8003E
F8003E
F8003E
F8003E
F8003E
F8003E
F8003E
F8003E
F8003E
F8003E
F8003E
F8003E
F8003E
F8003E
F8007E
F8007E
F800FC
FFFFFC
FFFFF8
FFFFF0
FFFFE0
FFFF00
ENDCHAR
STARTCHAR c
ENCODING 99
SWIDTH 539 0
DWIDTH 34 0
BBX 19 32 8 0
BITMAP
03FFE0
0FFFE0
3FFFE0
7FFFE0
7FFFE0
FE0000
FC0000
F80000
F80000
F80000
F80000
F80000
F80000
F80000
F80000
F80000
F80000
F80000
F80000
F80000
F80000
F80000
F80000
F80000
F80000
FC0000
FE0000
7FFFE0
7FFFE0
3FFFE0
0FFFE0
03FFE0
ENDCHAR
STARTCHAR d
ENCODING 100
SWIDTH 539 0
DWIDTH 34 0
BBX 24 45 5 0
BITMAP
00001F
00001F
00001F
00001F
00001F
00001F
00001F
00001F
00001F
00001F
00001F
00001F
00001F
01FFFF
0FFFFF
1FFFFF
3FFFFF
7FFFFF
7F001F
7E001F
7C001F
FC001F
FC001F
FC001F
FC001F
FC001F
FC001F
FC001F
FC001F
FC001F
FC001F
FC001F
FC001F
FC001F
FC001F
FC001F
FC001F
7C001F
7C003F
7F007F
7FFFFF
3FFFFF
1FFFFF
0FFFFF
01FF9F
ENDCHAR
STARTCHAR e
ENCODING 101
SWIDTH 539 0
DWIDTH 34 0
BBX 22 32 6 0
BITMAP
03FF80
1FFFE0
3FFFF0
7FFFF8
7FFFF8
7E00FC
FC007C
FC007C
F8007C
F8007C
F8007C
F8007C
F8007C
FFFFFC
FFFFFC
FFFFFC
FFFFFC
FFFFFC
F80000
F80000
F80000
F80000
F80000
F80000
FC0000
FC0000
7E0000
7FFFF0
3FFFF0
1FFFF0
0FFFF0
03FFF0
ENDCHAR
STARTCHAR f
ENCODING 102
SWIDTH 539 0
DWIDTH 34 0
BBX 22 45 6 0
BITMAP
003FFC
00FFFC
01FFFC
01FFFC
03FFFC
03F000
03E000
03E000
03E000
03E000
03E000
03E000
03E000
FFFFFC
FFFFFC
FFFFFC
FFFFFC
FFFFFC
03E000
03E000
03E000
03E000
03E000
03E000
03E000
03E000
03E000
03E000
03E000
03E000
03E000
03E000
03E000
03E000
03E000
03E000
03E000
03E000
03E000
03E000
FFFFE0
FFFFE0
FFFFE0
FFFFE0
FFFFE0
ENDCHAR
STARTCHAR g
ENCODING 103
SWIDTH 539 0
DWIDTH 34 0
BBX 25 43 5 -11
BITMAP
03FFFF00
0FFFFF00
3FFFFF00
7FFFFF00
7FFFFF00
FE003F00
FC003F00
F8003F00
F8003F00
F8003F00
F8003F00
F8003F00
F8003F00
F8003F00
F8003F00
FC003E00
FE007E00
7FFFFE00
7FFFFC00
3FFFF800
1FFFF000
0FFFC000
0F800000
0F800000
0F800000
0FFFE000
0FFFF800
0FFFFE00
0FFFFF00
0FFFFF00
00003F00
00001F80
00001F80
00001F80
00001F80
00001F80
00001F80
00003F00
7FFFFF00
7FFFFF00
7FFFFE00
7FFFF800
7FFFE000
ENDCHAR
STARTCHAR h
ENCODING 104
SWIDTH 539 0
DWIDTH 34 0
BBX 23 45 6 0
BITMAP
F80000
F80000
F80000
F80000
F80000
F80000
F80000
F80000
F80000
F80000
F80000
F80000
F80000
F9FF80
FFFFE0
FFFFF8
FFFFF8
FFFFFC
FE00FC
FC007E
F8007E
F8003E
F8003E
F8003E
F8003E
F8003E
F8003E
F8003E
F8003E
F8003E
F8003E
F8003E
F8003E
F8003E
F8003E
F8003E
F8003E
F8003E
F8003E
F8003E
F8003E
F8003E
F8003E
F8003E
F8003E
ENDCHAR
STARTCHAR i
ENCODING 105
SWIDTH 539 0
DWIDTH 34 0
BBX 24 45 5 0
BITMAP
007E00
007E00
007E00
007E00
007E00
007E00
000000
000000
000000
000000
000000
000000
000000
FFFE00
FFFE00
FFFE00
FFFE00
FFFE00
003E00
003E00
003E00
003E00
003E00
003E00
003E00
003E00
003E00
003E00
003E00
003E00
003E00
003E00
003E00
003E00
003E00
003E00
003E00
003E00
003E00
003E00
003FFF
003FFF
003FFF
003FFF
003FFF
ENDCHAR
STARTCHAR j
ENCODING 106
SWIDTH 539 0
DWIDTH 34 0
BBX 17 56 9 -11
BITMAP
001F80
001F80
001F80
001F80
001F80
001F80
000000
000000
000000
000000
000000
000000
000000
3FFF00
3FFF00
3FFF00
3FFF00
3FFF00
001F00
001F00
001F00
001F00
001F00
001F00
001F00
001F00
001F00
001F00
001F00
001F00
001F00
001F00
001F00
001F00
001F00
001F00
001F00
001F00
001F00
001F00
001F00
001F00
001F00
001F00
001F00
001F00
001F00
001F00
001F00
001F00
001F00
FFFF00
FFFF00
FFFE00
FFFC00
FFF800
ENDCHAR
STARTCHAR k
ENCODING 107
SWIDTH 539 0
DWIDTH 34 0
BBX 23 45 6 0
BITMAP
FC0000
FC0000
FC0000
FC0000
FC0000
FC0000
FC0000
FC0000
FC0000
FC0000
FC0000
FC0000
FC0000
FC01FC
FC03F8
FC07F0
FC07E0
FC0FE0
FC1FC0
FC3F80
FC7F00
FCFE00
FDFC00
FFF800
FFF000
FFE000
FFF000
FFF800
FFF800
FFFC00
FCFC00
FC7E00
FC7F00
FC3F00
FC3F80
FC1F80
FC0FC0
FC0FE0
FC07E0
FC07F0
FC03F8
FC01F8
FC01FC
FC00FC
FC00FE
ENDCHAR
STARTCHAR l
ENCODING 108
SWIDTH 539 0
DWIDTH 34 0
BBX 26 45 4 0
BITMAP
FFFE0000
FFFE0000
FFFE0000
FFFE0000
FFFE0000
003E0000
003E0000
003E0000
003E0000
003E0000
003E0000
003E0000
003E0000
003E0000
003E0000
003E0000
003E0000
003E0000
003E0000
003E0000
003E0000
003E0000
003E0000
003E0000
003E0000
003E0000
003E0000
003E0000
003E0000
003E0000
003E0000
003E0000
003E0000
003E0000
003E0000
003E0000
003E0000
003E0000
003E0000
003F0000
003FFFC0
003FFFC0
001FFFC0
000FFFC0
0007FFC0
ENDCHAR
STARTCHAR m
ENCODING 109
SWIDTH 539 0
DWIDTH 34 0
BBX 29 32 3 0
BITMAP
FBF03F80
FFFC7FC0
FFFEFFE0
FFFFFFF0
FFFFFFF0
FC1FC1F8
F81F81F8
F80F80F8
F80F80F8
F80F80F8
F80F80F8
F80F80F8
F80F80F8
F80F80F8
F80F80F8
F80F80F8
F80F80F8
F80F80F8
F80F80F8
F80F80F8
F80F80F8
F80F80F8
F80F80F8
F80F80F8
F80F80F8
F80F80F8
F80F80F8
F80F80F8
F80F80F8
F80F80F8
F80F80F8
F80F80F8
ENDCHAR
STARTCHAR n
ENCODING 110
SWIDTH 539 0
DWIDTH 34 0
BBX 23 32 6 0
BITMAP
F9FF80
FFFFE0
FFFFF8
FFFFF8
FFFFFC
FE00FC
FC007E
F8007E
F8003E
F8003E
F8003E
F8003E
F8003E
F8003E
F8003E
F8003E
F8003E
F8003E
F8003E
F8003E
F8003E
F8003E
F8003E
F8003E
F8003E
F8003E
F8003E
F8003E
F8003E
F8003E
F8003E
F8003E
ENDCHAR
STARTCHAR o
ENCODING 111
SWIDTH 539 0
DWIDTH 34 0
BBX 24 32 5 0
BITMAP
01FFC0
0FFFF0
1FFFFC
3FFFFC
7FFFFE
7F007E
7C003F
FC001F
FC001F
FC001F
FC001F
FC001F
FC001F
FC001F
FC001F
FC001F
FC001F
FC001F
FC001F
FC001F
FC001F
FC001F
FC001F
FC001F
FC001F
7C003F
7F007E
7FFFFE
3FFFFE
1FFFFC
0FFFF0
01FFC0
ENDCHAR
STARTCHAR p
ENCODING 112
SWIDTH 539 0
DWIDTH 34 0
BBX 23 43 6 -11
BITMAP
F9FF80
FFFFE0
FFFFF0
FFFFF8
FFFFFC
FE00FC
FC007E
F8007E
F8003E
F8003E
F8003E
F8003E
F8003E
F8003E
F8003E
F8003E
F8003E
F8003E
F8003E
F8003E
F8003E
F8003E
F8003E
F8003E
F8007E
F8007E
F800FC
FFFFFC
FFFFF8
FFFFF0
FFFFE0
FFFF00
F80000
F80000
F80000
F80000
F80000
F80000
F80000
F80000
F80000
F80000
F80000
ENDCHAR
STARTCHAR q
ENCODING 113
SWIDTH 539 0
DWIDTH 34 0
BBX 24 43 5 -11
BITMAP
01FFFF
0FFFFF
1FFFFF
3FFFFF
7FFFFF
7F001F
7E001F
7C001F
FC001F
FC001F
FC001F
FC001F
FC001F
FC001F
FC001F
FC001F
FC001F
FC001F
FC001F
FC001F
FC001F
FC001F
FC001F
FC001F
7C001F
7C003F
7F007F
7FFFFF
3FFFFF
1FFFFF
0FFFFF
01FF9F
00001F
00001F
00001F
00001F
00001F
00001F
00001F
00001F
00001F
00001F
00001F
ENDCHAR
STARTCHAR r
ENCODING 114
SWIDTH 539 0
DWIDTH 34 0
BBX 22 32 6 0
BITMAP
FFCFFC
FFFFFC
FFFFFC
FFFFFC
FFFFFC
07F000
07E000
07E000
07E000
07E000
07E000
07E000
07E000
07E000
07E000
07E000
07E000
07E000
07E000
07E000
07E000
07E000
07E000
07E000
07E000
07E000
07E000
FFFF80
FFFF80
FFFF80
FFFF80
FFFF80
ENDCHAR
STARTCHAR s
ENCODING 115
SWIDTH 539 0
DWIDTH 34 0
BBX 19 32 8 0
BITMAP
07FFC0
1FFFC0
7FFFC0
7FFFC0
FFFFC0
FC0000
F80000
F80000
F80000
F80000
F80000
F80000
FC0000
FFFC00
7FFF00
7FFF80
1FFFC0
03FFC0
0007E0
0007E0
0003E0
0003E0
0003E0
0003E0
0003E0
0007E0
0007E0
FFFFC0
FFFFC0
FFFF80
FFFF00
FFFC00
ENDCHAR
STARTCHAR t
ENCODING 116
SWIDTH 539 0
DWIDTH 34 0
BBX 21 40 7 0
BITMAP
03E000
03E000
03E000
03E000
03E000
03E000
03E000
03E000
FFFFF8
FFFFF8
FFFFF8
FFFFF8
FFFFF8
03E000
03E000
03E000
03E000
03E000
03E000
03E000
03E000
03E000
03E000
03E000
03E000
03E000
03E000
03E000
03E000
03E000
03E000
03E000
03E000
03E000
03F000
03FFF8
01FFF8
01FFF8
00FFF8
003FF8
ENDCHAR
STARTCHAR u
ENCODING 117
SWIDTH 539 0
DWIDTH 34 0
BBX 23 32 6 0
BITMAP
F8007E
F8007E
F8007E
F8007E
F8007E
F8007E
F8007E
F8007E
F8007E
F8007E
F8007E
F8007E
F8007E
F8007E
F8007E
F8007E
F8007E
F8007E
F8007E
F8007E
F8007E
F8007E
F8007E
F8007E
FC007E
FC007E
7E00FE
7FFFFE
3FFFFE
3FFFFE
0FFFFE
03FE7E
ENDCHAR
STARTCHAR v
ENCODING 118
SWIDTH 539 0
DWIDTH 34 0
BBX 26 32 4 0
BITMAP
FC0007C0
7C000FC0
7E000FC0
7E000F80
7E000F80
3E001F80
3F001F80
3F001F00
1F003F00
1F803F00
1F803E00
1F803E00
0F807E00
0FC07E00
0FC07C00
07C07C00
07C0FC00
07E0F800
07E0F800
03E0F800
03F1F800
03F1F000
01F1F000
01F1F000
01FBE000
01FBE000
00FBE000
00FFE000
00FFC000
007FC000
007FC000
007F8000
ENDCHAR
STARTCHAR w
ENCODING 119
SWIDTH 539 0
DWIDTH 34 0
BBX 30 32 2 0
BITMAP
FC00007C
7C00007C
7C00007C
7C00007C
7C00007C
7C0000F8
7E07C0F8
3E07C0F8
3E07C0F8
3E07C0F8
3E07E0F0
3E0FE0F0
3E0FE1F0
1F0FE1F0
1F0FE1F0
1F1FF1F0
1F1EF1E0
1F1EF1E0
0F1EF1E0
0F1EF3E0
0FBCFBE0
0FBCFBE0
0FBC7BC0
0FBC7BC0
07BC7BC0
07F87FC0
07F87FC0
07F83F80
07F83F80
03F83F80
03F03F80
03F03F80
ENDCHAR
STARTCHAR x
ENCODING 120
SWIDTH 539 0
DWIDTH 34 0
BBX 26 32 4 0
BITMAP
7F001FC0
3F001F80
3F803F00
1F803E00
0FC07E00
0FC0FC00
07E0FC00
07F1F800
03F1F000
01FBF000
01FFE000
00FFC000
00FFC000
007F8000
003F8000
003F0000
003F8000
007FC000
00FFC000
00FFE000
01FBE000
03F3F000
03F1F800
07E1F800
07E0FC00
0FC0FC00
1F807E00
1F807F00
3F003F00
3F001F80
7E001F80
FC000FC0
ENDCHAR
STARTCHAR y
ENCODING 121
SWIDTH 539 0
DWIDTH 34 0
BBX 26 43 4 -11
BITMAP
FC0007C0
7C000FC0
7E000FC0
7E000FC0
3E000F80
3F001F80
3F001F80
3F001F00
1F001F00
1F803F00
1F803F00
0F803E00
0FC03E00
0FC07E00
07C07C00
07E07C00
07E07C00
03E0FC00
03E0F800
03F0F800
01F0F800
01F1F000
01F9F000
00F9F000
00F9F000
00FFE000
007FE000
007FE000
007FE000
003FC000
003FC000
003FC000
000F8000
001F8000
001F8000
001F8000
001F0000
003F0000
07FF0000
07FE0000
07FC0000
07FC0000
07F00000
ENDCHAR
STARTCHAR z
ENCODING 122
SWIDTH 539 0
DWIDTH 34 0
BBX 21 32 7 0
BITMAP
7FFFF8
7FFFF8
7FFFF8
7FFFF8
7FFFF8
0003F8
0003F0
0007F0
000FE0
000FC0
001FC0
003F80
003F00
007F00
00FE00
01FC00
01F800
03F800
07F000
07E000
0FE000
1FC000
1F8000
3F8000
7F0000
7E0000
FC0000
FFFFF0
FFFFF0
FFFFF0
FFFFF0
FFFFF0
ENDCHAR
STARTCHAR braceleft
ENCODING 123
SWIDTH 539 0
DWIDTH 34 0
BBX 16 60 9 -8
BITMAP
007F
01FF
03FF
03FF
07FF
07C0
07C0
07C0
07C0
07C0
07C0
07C0
07C0
07C0
07C0
07C0
07C0
07C0
07C0
07C0
07C0
07C0
07C0
07C0
0FC0
1F80
FF80
FF00
FE00
F800
FE00
FF00
FF80
1F80
0FC0
07C0
07C0
07C0
07C0
07C0
07C0
07C0
07C0
07C0
07C0
07C0
07C0
07C0
07C0
07C0
07C0
07C0
07C0
07C0
07C0
07FF
03FF
03FF
01FF
00FF
ENDCHAR
STARTCHAR bar
ENCODING 124
SWIDTH 539 0
DWIDTH 34 0
BBX 5 59 15 -7
BITMAP
F8
F8
F8
F8
F8
F8
F8
F8
F8
F8
F8
F8
F8
F8
F8
F8
F8
F8
F8
F8
F8
F8
F8
F8
F8
F8
F8
F8
F8
F8
F8
F8
F8
F8
F8
F8
F8
F8
F8
F8
F8
F8
F8
F8
F8
F8
F8
F8
F8
F8
F8
F8
F8
F8
F8
F8
F8
F8
F8
ENDCHAR
STARTCHAR braceright
ENCODING 125
SWIDTH 539 0
DWIDTH 34 0
BBX 16 60 9 -8
BITMAP
FF00
FFC0
FFC0
FFE0
FFE0
03E0
01F0
01F0
01F0
01F0
01F0
01F0
01F0
01F0
01F0
01F0
01F0
01F0
01F0
01F0
01F0
01F0
01F0
01F0
01F0
01F8
00FF
00FF
007F
000F
003F
00FF
00FF
01F8
01F0
01F0
01F0
01F0
01F0
01F0
01F0
01F0
01F0
01F0
01F0
01F0
01F0
01F0
01F0
01F0
01F0
01F0
01F0
03E0
03E0
FFE0
FFE0
FFC0
FFC0
FF00
ENDCHAR
STARTCHAR asciitilde
ENCODING 126
SWIDTH 539 0
DWIDTH 34 0
BBX 22 8 6 17
BITMAP
078000
1FE00C
7FFC3C
FFFFFC
FFFFFC
F87FFC
E00FF0
8003C0
ENDCHAR
STARTCHAR uni00A0
ENCODING 160
SWIDTH 539 0
DWIDTH 34 0
BBX 1 1 0 0
BITMAP
00
ENDCHAR
STARTCHAR exclamdown
ENCODING 161
SWIDTH 539 0
DWIDTH 34 0
BBX 6 44 14 -12
BITMAP
FC
FC
FC
FC
FC
FC
00
00
00
00
00
00
00
7C
7C
7C
7C
7C
7C
7C
7C
7C
7C
7C
7C
7C
7C
7C
7C
7C
7C
7C
7C
7C
7C
7C
7C
7C
7C
7C
7C
7C
7C
7C
ENDCHAR
STARTCHAR cent
ENCODING 162
SWIDTH 539 0
DWIDTH 34 0
BBX 19 46 8 -7
BITMAP
007C00
007C00
007C00
007C00
007C00
007C00
007C00
03FFE0
0FFFE0
3FFFE0
7FFFE0
7FFFE0
FE0000
FC0000
F80000
F80000
F80000
F80000
F80000
F80000
F80000
F80000
F80000
F80000
F80000
F80000
F80000
F80000
F80000
F80000
F80000
F80000
FC0000
FE0000
7FFFE0
7FFFE0
3FFFE0
0FFFE0
03FFE0
007C00
007C00
007C00
007C00
007C00
007C00
007C00
ENDCHAR
STARTCHAR sterling
ENCODING 163
SWIDTH 539 0
DWIDTH 34 0
BBX 23 45 6 0
BITMAP
000FFC
007FFC
00FFFC
01FFFC
03FFFC
07F000
07E000
07C000
0FC000
0FC000
0FC000
0FC000
0FC000
0FC000
0FC000
0FC000
0FC000
0FC000
FFFFC0
FFFFC0
FFFFC0
FFFFC0
FFFFC0
0FC000
0FC000
0FC000
0FC000
0FC000
0FC000
0FC000
0FC000
0FC000
0FC000
0FC000
0FC000
0FC000
0FC000
0FC000
0FC000
0FC000
FFFFFE
FFFFFE
FFFFFE
FFFFFE
FFFFFE
ENDCHAR
STARTCHAR currency
ENCODING 164
SWIDTH 539 0
DWIDTH 34 0
BBX 33 33 1 3
BITMAP
1000000400
3800000C00
7C00001E00
FE1FF83F80
7FFFFFFF00
3FFFFFFE00
1FFFFFFC00
0FFFFFF800
0FE007F000
0FC001F000
0F8001F800
0F8001F800
0F8001F800
0F8001F800
0F8001F800
0F8001F800
0F8001F800
0F8001F800
0F8001F800
0F8001F800
0F8001F800
0F8001F800
0F8001F800
0FC001F000
0FE003F000
0FFFFFF800
1FFFFFFC00
3FFFFFFE00
7FFFFFFF00
FE3FFE3F80
7C00001E00
3800000C00
1000000400
ENDCHAR
STARTCHAR yen
ENCODING 165
SWIDTH 539 0
DWIDTH 34 0
BBX 27 45 4 0
BITMAP
FC0007E0
FC0007C0
7E000FC0
7E000F80
3F001F80
3F001F00
3F803F00
1F803F00
1F807E00
0FC07E00
0FC07C00
07E0FC00
07E0F800
03F1F800
03F1F000
01FBF000
01FBE000
00FBE000
00FFC000
00FFC000
007F8000
007F8000
003F8000
3FFFFF00
3FFFFF00
3FFFFF00
3FFFFF00
3FFFFF00
003F0000
003F0000
003F0000
003F0000
003F0000
3FFFFF00
3FFFFF00
3FFFFF00
3FFFFF00
3FFFFF00
003F0000
003F0000
003F0000
003F0000
003F0000
003F0000
003F0000
ENDCHAR
STARTCHAR brokenbar
ENCODING 166
SWIDTH 539 0
DWIDTH 34 0
BBX 5 59 15 -7
BITMAP
F8
F8
F8
F8
F8
F8
F8
F8
F8
F8
F8
F8
F8
F8
F8
F8
F8
F8
F8
F8
F8
F8
F8
00
00
00
00
00
00
00
00
00
00
00
00
00
F8
F8
F8
F8
F8
F8
F8
F8
F8
F8
F8
F8
F8
F8
F8
F8
F8
F8
F8
F8
F8
F8
F8
ENDCHAR
STARTCHAR section
ENCODING 167
SWIDTH 539 0
DWIDTH 34 0
BBX 20 45 7 0
BITMAP
01FFE0
0FFFE0
1FFFE0
3FFFE0
3FFFE0
3F0000
7E0000
7E0000
7E0000
7E0000
7E0000
7E0000
3F0000
3FFE00
3FFF80
1FFFC0
3FFFE0
7FFFE0
7C03F0
FC01F0
FC01F0
FC01F0
FC01F0
FC01F0
FC01F0
7C01F0
7E03F0
7FFFE0
3FFFE0
3FFFC0
0FFFC0
03FFE0
0007E0
0003E0
0003E0
0003E0
0003E0
0003E0
0003E0
0007E0
3FFFE0
3FFFC0
3FFF80
3FFF00
3FFC00
ENDCHAR
STARTCHAR dieresis
ENCODING 168
SWIDTH 539 0
DWIDTH 34 0
BBX 18 5 8 38
BITMAP
FC07C0
FC07C0
FC07C0
FC07C0
FC07C0
ENDCHAR
STARTCHAR copyright
ENCODING 169
SWIDTH 539 0
DWIDTH 34 0
BBX 31 45 2 0
BITMAP
03FFFF00
0FFFFFE0
1FFFFFF0
3FFFFFF8
7E0001FC
7C00007C
F800007C
F800003E
F000003E
F000003E
F007F83E
F01FF83E
F03FF83E
F03C003E
F078003E
F078003E
F078003E
F078003E
F078003E
F078003E
F078003E
F078003E
F078003E
F078003E
F078003E
F078003E
F078003E
F078003E
F078003E
F078003E
F078003E
F03C003E
F03FF83E
F01FF83E
F007F83E
F000003E
F000003E
F800003E
F800007C
7C00007C
7E0001FC
3FFFFFF8
1FFFFFF0
0FFFFFE0
03FFFF00
ENDCHAR
STARTCHAR ordfeminine
ENCODING 170
SWIDTH 539 0
DWIDTH 34 0
BBX 19 45 8 0
BITMAP
3FF000
3FFC00
3FFE00
3FFE00
001F00
000F00
000F00
000F00
000F00
0FFF00
3FFF00
7FFF00
7FFF00
FC0F00
F80F00
F00F00
F00F00
F00F00
F00F00
F81F00
FFFF80
7FFFE0
3FFFE0
1FF3E0
000000
000000
000000
000000
000000
000000
000000
000000
000000
000000
000000
000000
000000
000000
000000
000000
7FFF80
7FFF80
7FFF80
7FFF80
7FFF80
ENDCHAR
STARTCHAR guillemotleft
ENCODING 171
SWIDTH 539 0
DWIDTH 34 0
BBX 20 27 7 5
BITMAP
03C0F0
07C1F0
0781F0
0F81E0
0F83E0
0F03E0
1F07C0
1F07C0
3F07C0
3E0FC0
7E0F80
7E1F80
7C1F80
FC3F00
7C1F80
7E1F80
7E0F80
3E0F80
3F0FC0
1F07C0
1F07C0
0F03E0
0F83E0
0F81E0
0781F0
07C1F0
03C0F0
ENDCHAR
STARTCHAR logicalnot
ENCODING 172
SWIDTH 539 0
DWIDTH 34 0
BBX 27 16 4 7
BITMAP
FFFFFFE0
FFFFFFE0
FFFFFFE0
FFFFFFE0
FFFFFFE0
000007E0
000007E0
000007E0
000007E0
000007E0
000007E0
000007E0
000007E0
000007E0
000007E0
000007E0
ENDCHAR
STARTCHAR uni00AD
ENCODING 173
SWIDTH 539 0
DWIDTH 34 0
BBX 21 5 7 18
BITMAP
FFFFF8
FFFFF8
FFFFF8
FFFFF8
FFFFF8
ENDCHAR
STARTCHAR registered
ENCODING 174
SWIDTH 539 0
DWIDTH 34 0
BBX 31 45 2 0
BITMAP
03FFFF00
0FFFFFE0
1FFFFFF0
3FFFFFF8
7E0001FC
7C00007C
F800007C
F800003E
F000003E
F000003E
F07FE03E
F07FF83E
F07FFC3E
F0703C3E
F0703C3E
F0703C3E
F0703C3E
F0703C3E
F0703C3E
F0703C3E
F0703C3E
F0703C3E
F07FF83E
F07FF83E
F07FE03E
F070E03E
F070F03E
F070703E
F070783E
F070383E
F0703C3E
F0701C3E
F0701E3E
F0700E3E
F0700F3E
F000003E
F000003E
F800003E
F800007C
7C00007C
7E0001FC
3FFFFFF8
1FFFFFF0
0FFFFFE0
03FFFF00
ENDCHAR
STARTCHAR macron
ENCODING 175
SWIDTH 539 0
DWIDTH 34 0
BBX 16 5 9 39
BITMAP
FFFF
FFFF
FFFF
FFFF
FFFF
ENDCHAR
STARTCHAR degree
ENCODING 176
SWIDTH 539 0
DWIDTH 34 0
BBX 18 20 8 25
BITMAP
07F800
1FFE00
3FFF80
7FFF80
7E0FC0
F807C0
F803C0
F803C0
F803C0
F803C0
F803C0
F803C0
F803C0
F803C0
F807C0
7C0FC0
7FFF80
3FFF00
1FFE00
07F800
ENDCHAR
STARTCHAR plusminus
ENCODING 177
SWIDTH 539 0
DWIDTH 34 0
BBX 24 32 5 0
BITMAP
003E00
003E00
003E00
003E00
003E00
003E00
003E00
003E00
003E00
FFFFFF
FFFFFF
FFFFFF
FFFFFF
FFFFFF
003E00
003E00
003E00
003E00
003E00
003E00
003E00
003E00
003E00
000000
000000
000000
000000
FFFFFF
FFFFFF
FFFFFF
FFFFFF
FFFFFF
ENDCHAR
STARTCHAR twosuperior
ENCODING 178
SWIDTH 539 0
DWIDTH 34 0
BBX 15 32 10 13
BITMAP
7FC0
7FF0
7FF8
7FFC
00FC
003C
003E
003E
003E
003E
003E
003E
003C
007C
007C
00FC
01F8
01F0
03F0
07E0
07C0
0F80
1F80
3F00
3E00
7C00
FC00
F800
FFFE
FFFE
FFFE
FFFE
ENDCHAR
STARTCHAR threesuperior
ENCODING 179
SWIDTH 539 0
DWIDTH 34 0
BBX 14 32 10 13
BITMAP
FF80
FFE0
FFF8
FFF8
00FC
007C
007C
007C
007C
007C
007C
007C
00F8
3FF8
3FF0
3FF0
3FF8
00FC
007C
007C
003C
003C
003C
003C
003C
003C
007C
00FC
FFFC
FFF8
FFF0
FFC0
ENDCHAR
STARTCHAR acute
ENCODING 180
SWIDTH 539 0
DWIDTH 34 0
BBX 13 9 11 37
BITMAP
03F8
03F0
07E0
0FC0
1F80
3F00
3F00
7E00
FC00
ENDCHAR
STARTCHAR mu
ENCODING 181
SWIDTH 539 0
DWIDTH 34 0
BBX 21 43 7 -11
BITMAP
F800F8
F800F8
F800F8
F800F8
F800F8
F800F8
F800F8
F800F8
F800F8
F800F8
F800F8
F800F8
F800F8
F800F8
F800F8
F800F8
F800F8
F800F8
F800F8
F800F8
F800F8
F800F8
F800F8
F800F8
F801F8
FC01F8
FE03F8
FFFFF8
FFFFF8
FFFFF8
FFFFF8
FBFCF8
F80000
F80000
F80000
F80000
F80000
F80000
F80000
F80000
F80000
F80000
F80000
ENDCHAR
STARTCHAR paragraph
ENCODING 182
SWIDTH 539 0
DWIDTH 34 0
BBX 25 45 4 0
BITMAP
03FF0F80
0FFF0F80
3FFF0F80
3FFF0F80
7FFF0F80
7E000F80
FC000F80
F8000F80
F8000F80
F8000F80
F8000F80
F8000F80
F8000F80
F8000F80
FC000F80
7E000F80
7FFF0F80
7FFF0F80
3FFF0F80
1FFF0F80
03FF0F80
001F0F80
001F0F80
001F0F80
001F0F80
001F0F80
001F0F80
001F0F80
001F0F80
001F0F80
001F0F80
001F0F80
001F0F80
001F0F80
001F0F80
001F0F80
001F0F80
001F0F80
001F0F80
001F0F80
001F0F80
001F0F80
001F0F80
001F0F80
001F0F80
ENDCHAR
STARTCHAR periodcentered
ENCODING 183
SWIDTH 539 0
DWIDTH 34 0
BBX 6 6 14 17
BITMAP
FC
FC
FC
FC
FC
FC
ENDCHAR
STARTCHAR cedilla
ENCODING 184
SWIDTH 539 0
DWIDTH 34 0
BBX 11 16 12 -13
BITMAP
7800
7800
7800
7800
7C00
7F80
7FC0
7FE0
03E0
03E0
03E0
03E0
FFC0
FFC0
FF80
FF00
ENDCHAR
STARTCHAR onesuperior
ENCODING 185
SWIDTH 539 0
DWIDTH 34 0
BBX 16 32 9 13
BITMAP
07E0
1FE0
7FE0
FFE0
FFE0
F9E0
C1E0
01E0
01E0
01E0
01E0
01E0
01E0
01E0
01E0
01E0
01E0
01E0
01E0
01E0
01E0
01E0
01E0
01E0
01E0
01E0
01E0
01E0
7FFF
7FFF
7FFF
7FFF
ENDCHAR
STARTCHAR ordmasculine
ENCODING 186
SWIDTH 539 0
DWIDTH 34 0
BBX 18 45 8 0
BITMAP
07F800
1FFE00
3FFF00
7FFF80
7C0F80
780780
7807C0
7807C0
7807C0
7807C0
7807C0
7807C0
7807C0
7807C0
7807C0
7807C0
7807C0
7807C0
780780
7C0F80
7FFF80
3FFF00
1FFE00
07F800
000000
000000
000000
000000
000000
000000
000000
000000
000000
000000
000000
000000
000000
000000
000000
000000
FFFFC0
FFFFC0
FFFFC0
FFFFC0
FFFFC0
ENDCHAR
STARTCHAR guillemotright
ENCODING 187
SWIDTH 539 0
DWIDTH 34 0
BBX 20 27 7 5
BITMAP
F83E00
781E00
781F00
7C1F00
3C0F80
3E0F80
3E0F80
3F07C0
1F07C0
1F07E0
1F83E0
0F83E0
0FC3F0
0FC3F0
0FC3F0
0F83F0
1F83E0
1F07E0
1F07C0
3F07C0
3E0F80
3E0F80
3C0F80
7C1F00
781F00
781E00
F83E00
ENDCHAR
STARTCHAR onequarter
ENCODING 188
SWIDTH 539 0
DWIDTH 34 0
BBX 33 59 1 -7
BITMAP
000001F000
000001E000
000003E000
000003E000
000003C000
000007C000
000007C000
1F8007C000
7F80078000
FF800F8000
FF800F8000
FF800F8000
CF800F0000
8F801F0000
0F801F0000
0F801E0000
0F803E0000
0F803E0000
0F803E0000
0F803C0000
0F807DF000
0F807DF000
0F807DE000
0F80F9E000
0F80F9E000
0F80FBE000
0F80F3E000
0F81F3C000
0F81F3C000
0F81F3C000
0F81E3C000
0F83E7CE00
0F83E78E00
0F83C79E00
0F87C79E00
7FE7C79E00
7FE7CF9E00
7FE78F1E00
7FEF8F3E00
000F8F3E00
000F8FFF80
001F0FFF80
001F0FFF80
001F0FFF80
001E003E00
003E003E00
003E003E00
003E003E00
003C003E00
007C003E00
007C003E00
0078003E00
00F8000000
00F8000000
00F8000000
00F0000000
01F0000000
01F0000000
01F0000000
ENDCHAR
STARTCHAR onehalf
ENCODING 189
SWIDTH 539 0
DWIDTH 34 0
BBX 33 59 1 -7
BITMAP
000003F000
000003F000
000003E000
000007E000
000007E000
000007C000
000007C000
1F800FC000
7F800FC000
FF800F8000
FF800F8000
FF801F8000
CF801F8000
8F801F0000
0F801F0000
0F803F0000
0F803E0000
0F803E0000
0F807E0000
0F807E0000
0F807DF800
0F807DFE00
0F80FDFF00
0F80F9FF00
0F80F81F80
0F80F80F80
0F81F80F80
0F81F00F80
0F81F00F80
0F81F00F80
0F83F00F80
0F83E00F80
0F83E00F80
0F83E00F80
0F87C00F80
7FE7C00F80
7FE7C01F00
7FEFC01F00
7FEF803F00
000F803E00
000F807E00
001F007C00
001F007C00
001F00F800
001F00F800
003E01F000
003E01F000
003E03E000
003E03FF80
007C03FF80
007C03FF80
007C03FF80
0078000000
00F8000000
00F8000000
00F8000000
00F0000000
01F0000000
01F0000000
ENDCHAR
STARTCHAR threequarters
ENCODING 190
SWIDTH 539 0
DWIDTH 34 0
BBX 33 59 1 -7
BITMAP
000003E000
000003E000
000003E000
000003C000
000007C000
000007C000
000007C000
FE00078000
FF800F8000
FFC00F8000
FFC00F0000
03E01F0000
03E01F0000
01E01F0000
01E01E0000
01E03E0000
01E03E0000
01E03E0000
01E07C0000
03E07C0000
07C07DF000
3FC079F000
3F80F9E000
3F80F9E000
3FC0F9E000
03E0F3E000
01E1F3E000
01F1F3C000
01F1E3C000
01F3E3C000
01F3E3C000
01F3E7CE00
01F3C78E00
01F7C79E00
03E7C79E00
FFE7C79E00
FFEF8F9E00
FFCF8F1E00
FF0F8F3E00
000F0F3E00
001F0FFF80
001F0FFF80
001F0FFF80
001E0FFF80
003E003E00
003E003E00
003C003E00
007C003E00
007C003E00
007C003E00
0078003E00
00F8003E00
00F8000000
00F8000000
01F0000000
01F0000000
01F0000000
01E0000000
03E0000000
ENDCHAR
STARTCHAR questiondown
ENCODING 191
SWIDTH 539 0
DWIDTH 34 0
BBX 19 44 8 -12
BITMAP
00FC00
00FC00
00FC00
00FC00
00FC00
00FC00
000000
000000
000000
000000
000000
000000
000000
00FC00
00FC00
00FC00
00FC00
00FC00
00FC00
00FC00
01FC00
03F800
07F000
0FE000
1FC000
3F8000
7F0000
7E0000
7E0000
FC0000
FC0000
FC0000
FC0000
FC0000
FC0000
FC0000
FC0000
7C0000
7E0000
7FFFE0
3FFFE0
1FFFE0
0FFFE0
01FFE0
ENDCHAR
STARTCHAR Agrave
ENCODING 192
SWIDTH 539 0
DWIDTH 34 0
BBX 29 54 3 0
BITMAP
03FC0000
00FE0000
007E0000
003F0000
001F8000
000FC000
0007E000
0001F000
00000000
001FC000
003FC000
003FE000
003FE000
003FE000
007FE000
007DF000
007DF000
0079F000
00F9F000
00F8F800
00F8F800
00F8F800
01F0F800
01F0F800
01F07C00
01F07C00
03F07C00
03E07C00
03E07E00
03E03E00
03E03E00
07C03E00
07C03F00
07C01F00
07C01F00
0FC01F00
0F801F80
0F801F80
0FFFFF80
1FFFFF80
1FFFFFC0
1FFFFFC0
1FFFFFC0
3F0007C0
3F0007C0
3E0007E0
3E0007E0
7E0003E0
7E0003E0
7E0003F0
7C0003F0
FC0003F0
FC0001F0
FC0001F8
ENDCHAR
STARTCHAR Aacute
ENCODING 193
SWIDTH 539 0
DWIDTH 34 0
BBX 29 54 3 0
BITMAP
0001FC00
0003F800
0007F000
000FC000
001F8000
003F0000
007E0000
007C0000
00000000
001FC000
003FC000
003FE000
003FE000
003FE000
007FE000
007DF000
007DF000
0079F000
00F9F000
00F8F800
00F8F800
00F0F800
01F0F800
01F0F800
01F07C00
01F07C00
03E07C00
03E07C00
03E07E00
03E03E00
03C03E00
07C03E00
07C03F00
07C01F00
07801F00
0F801F00
0F801F80
0F801F80
0FFFFF80
1FFFFF80
1FFFFFC0
1FFFFFC0
1FFFFFC0
3F0007C0
3F0007C0
3E0007E0
3E0007E0
7E0003E0
7E0003E0
7E0003F0
7C0003F0
FC0003F0
FC0001F0
FC0001F8
ENDCHAR
STARTCHAR Acircumflex
ENCODING 194
SWIDTH 539 0
DWIDTH 34 0
BBX 29 54 3 0
BITMAP
001FC000
003FE000
007FF000
00FFF000
01F9F800
03F0FC00
07E07E00
0FC03F00
00000000
001FC000
003FC000
003FE000
003FE000
003FE000
007FE000
007DF000
007DF000
0079F000
00F9F000
00F8F800
00F8F800
00F8F800
01F0F800
01F0F800
01F07C00
01F07C00
03F07C00
03E07C00
03E07E00
03E03E00
03E03E00
07C03E00
07C03F00
07C01F00
07C01F00
0FC01F00
0F801F80
0F801F80
0FFFFF80
1FFFFF80
1FFFFFC0
1FFFFFC0
1FFFFFC0
3F0007C0
3F0007C0
3E0007E0
3E0007E0
7E0003E0
7E0003E0
7E0003F0
7C0003F0
FC0003F0
FC0001F0
FC0001F8
ENDCHAR
STARTCHAR Atilde
ENCODING 195
SWIDTH 539 0
DWIDTH 34 0
BBX 29 54 3 0
BITMAP
00780100
01FE0300
03FF8F00
03FFFF00
03FFFF00
0387FE00
0201FC00
00007000
00000000
001FC000
003FC000
003FE000
003FE000
003FE000
007FE000
007DF000
007DF000
0079F000
00F9F000
00F8F800
00F8F800
00F8F800
01F0F800
01F0F800
01F07C00
01F07C00
03F07C00
03E07C00
03E07E00
03E03E00
03E03E00
07C03E00
07C03F00
07C01F00
07C01F00
0FC01F00
0F801F80
0F801F80
0FFFFF80
1FFFFF80
1FFFFFC0
1FFFFFC0
1FFFFFC0
3F0007C0
3F0007C0
3E0007E0
3E0007E0
7E0003E0
7E0003E0
7E0003F0
7C0003F0
FC0003F0
FC0001F0
FC0001F8
ENDCHAR
STARTCHAR Adieresis
ENCODING 196
SWIDTH 539 0
DWIDTH 34 0
BBX 29 52 3 0
BITMAP
07E03E00
07E03E00
07E03E00
07E03F00
07E03F00
00000000
00000000
001FC000
003FC000
003FE000
003FE000
003FE000
007FE000
007DF000
007DF000
0079F000
00F9F000
00F8F800
00F8F800
00F8F800
01F0F800
01F0F800
01F07C00
01F07C00
03F07C00
03E07C00
03E07E00
03E03E00
03E03E00
07C03E00
07C03F00
07C01F00
07C01F00
0FC01F00
0F801F80
0F801F80
0FFFFF80
1FFFFF80
1FFFFFC0
1FFFFFC0
1FFFFFC0
3F0007C0
3F0007C0
3E0007E0
3E0007E0
7E0003E0
7E0003E0
7E0003F0
7C0003F0
FC0003F0
FC0001F0
FC0001F8
ENDCHAR
STARTCHAR Aring
ENCODING 197
SWIDTH 539 0
DWIDTH 34 0
BBX 29 55 3 0
BITMAP
000F8000
003FE000
007FE000
0078F000
0070F000
00F07000
00F07000
00F07000
00F0F000
0078F000
007FF000
003FE000
003FE000
003FE000
003FE000
007FE000
007DF000
007DF000
0079F000
00F9F000
00F8F000
00F8F800
00F8F800
00F0F800
01F0F800
01F07C00
01F07C00
01F07C00
03E07C00
03E07E00
03E03E00
03E03E00
07C03E00
07C03F00
07C01F00
07C01F00
0FC01F00
0F801F80
0F801F80
0FFFFF80
1FFFFF80
1FFFFF80
1FFFFFC0
1FFFFFC0
3F0007C0
3F0007C0
3E0007E0
3E0007E0
7E0003E0
7E0003E0
7E0003F0
7C0003F0
FC0003F0
FC0001F0
FC0001F8
ENDCHAR
STARTCHAR AE
ENCODING 198
SWIDTH 539 0
DWIDTH 34 0
BBX 32 45 1 0
BITMAP
001FFFFE
001FFFFE
001FFFFE
003FFFFE
003FFFFE
003FF000
003DF000
007DF000
007DF000
007DF000
007DF000
00F9F000
00F8F800
00F8F800
00F8F800
01F0F800
01F0F800
01F0F800
01F0F800
03E0FFFE
03E0FFFE
03E0FFFE
03E0FFFE
07C07FFE
07C07C00
07C07C00
07C07C00
0FC07C00
0F807C00
0FFFFC00
0FFFFC00
1FFFFE00
1FFFFE00
1FFFFE00
1F003E00
3F003E00
3E003E00
3E003E00
3E003E00
7E003E00
7C003FFF
7C003FFF
7C003FFF
FC001FFF
F8001FFF
ENDCHAR
STARTCHAR Ccedilla
ENCODING 199
SWIDTH 539 0
DWIDTH 34 0
BBX 21 58 7 -13
BITMAP
01FFF8
07FFF8
1FFFF8
3FFFF8
7FFFF8
7F0000
7E0000
FC0000
FC0000
FC0000
FC0000
FC0000
FC0000
FC0000
FC0000
FC0000
FC0000
FC0000
FC0000
FC0000
FC0000
FC0000
FC0000
FC0000
FC0000
FC0000
FC0000
FC0000
FC0000
FC0000
FC0000
FC0000
FC0000
FC0000
FC0000
FC0000
FC0000
FC0000
7E0000
7F0000
7FFFF8
3FFFF8
1FFFF8
07FFF8
01FFF8
007C00
007E00
007FC0
007FE0
007FE0
0003E0
0003E0
0003E0
0003E0
00FFE0
00FFE0
00FFC0
00FF00
ENDCHAR
STARTCHAR Egrave
ENCODING 200
SWIDTH 539 0
DWIDTH 34 0
BBX 21 54 7 0
BITMAP
3F8000
1FC000
07E000
03F000
01F800
00FC00
007E00
003F00
000000
FFFFF8
FFFFF8
FFFFF8
FFFFF8
FFFFF8
F80000
F80000
F80000
F80000
F80000
F80000
F80000
F80000
F80000
F80000
F80000
F80000
F80000
F80000
FFFFE0
FFFFE0
FFFFE0
FFFFE0
FFFFE0
F80000
F80000
F80000
F80000
F80000
F80000
F80000
F80000
F80000
F80000
F80000
F80000
F80000
F80000
F80000
F80000
FFFFF8
FFFFF8
FFFFF8
FFFFF8
FFFFF8
ENDCHAR
STARTCHAR Eacute
ENCODING 201
SWIDTH 539 0
DWIDTH 34 0
BBX 21 54 7 0
BITMAP
001FC0
003F80
007F00
00FC00
01F800
03F000
03E000
07C000
000000
FFFFF8
FFFFF8
FFFFF8
FFFFF8
FFFFF8
F80000
F80000
F80000
F80000
F80000
F80000
F80000
F80000
F80000
F80000
F80000
F80000
F80000
F80000
FFFFE0
FFFFE0
FFFFE0
FFFFE0
FFFFE0
F80000
F80000
F80000
F80000
F80000
F80000
F80000
F80000
F80000
F80000
F80000
F80000
F80000
F80000
F80000
F80000
FFFFF8
FFFFF8
FFFFF8
FFFFF8
FFFFF8
ENDCHAR
STARTCHAR Ecircumflex
ENCODING 202
SWIDTH 539 0
DWIDTH 34 0
BBX 21 54 7 0
BITMAP
01FC00
03FE00
07FF00
0FFF80
1F9F80
3F0FC0
7E07E0
FC03F0
000000
FFFFF8
FFFFF8
FFFFF8
FFFFF8
FFFFF8
F80000
F80000
F80000
F80000
F80000
F80000
F80000
F80000
F80000
F80000
F80000
F80000
F80000
F80000
FFFFE0
FFFFE0
FFFFE0
FFFFE0
FFFFE0
F80000
F80000
F80000
F80000
F80000
F80000
F80000
F80000
F80000
F80000
F80000
F80000
F80000
F80000
F80000
F80000
FFFFF8
FFFFF8
FFFFF8
FFFFF8
FFFFF8
ENDCHAR
STARTCHAR Edieresis
ENCODING 203
SWIDTH 539 0
DWIDTH 34 0
BBX 21 52 7 0
BITMAP
7E03E0
7E03E0
7E03E0
7E03E0
7E03E0
000000
000000
FFFFF8
FFFFF8
FFFFF8
FFFFF8
FFFFF8
F80000
F80000
F80000
F80000
F80000
F80000
F80000
F80000
F80000
F80000
F80000
F80000
F80000
F80000
FFFFE0
FFFFE0
FFFFE0
FFFFE0
FFFFE0
F80000
F80000
F80000
F80000
F80000
F80000
F80000
F80000
F80000
F80000
F80000
F80000
F80000
F80000
F80000
F80000
FFFFF8
FFFFF8
FFFFF8
FFFFF8
FFFFF8
ENDCHAR
STARTCHAR Igrave
ENCODING 204
SWIDTH 539 0
DWIDTH 34 0
BBX 17 54 9 0
BITMAP
FE0000
7F0000
3F8000
0FC000
07E000
03F000
01F800
00F800
000000
FFFF80
FFFF80
FFFF80
FFFF80
FFFF80
03E000
03E000
03E000
03E000
03E000
03E000
03E000
03E000
03E000
03E000
03E000
03E000
03E000
03E000
03E000
03E000
03E000
03E000
03E000
03E000
03E000
03E000
03E000
03E000
03E000
03E000
03E000
03E000
03E000
03E000
03E000
03E000
03E000
03E000
03E000
FFFF80
FFFF80
FFFF80
FFFF80
FFFF80
ENDCHAR
STARTCHAR Iacute
ENCODING 205
SWIDTH 539 0
DWIDTH 34 0
BBX 17 54 9 0
BITMAP
007F00
00FC00
01F800
03F000
07E000
0FC000
1F8000
3F0000
000000
FFFF80
FFFF80
FFFF80
FFFF80
FFFF80
07E000
07E000
07E000
07E000
07E000
07E000
07E000
07E000
07E000
07E000
07E000
07E000
07E000
07E000
07E000
07E000
07E000
07E000
07E000
07E000
07E000
07E000
07E000
07E000
07E000
07E000
07E000
07E000
07E000
07E000
07E000
07E000
07E000
07E000
07E000
FFFF80
FFFF80
FFFF80
FFFF80
FFFF80
ENDCHAR
STARTCHAR Icircumflex
ENCODING 206
SWIDTH 539 0
DWIDTH 34 0
BBX 20 54 7 0
BITMAP
01FC00
03FE00
07FF00
0FFF80
1F9F80
3F0FC0
7E07E0
FC03F0
000000
3FFFE0
3FFFE0
3FFFE0
3FFFE0
3FFFE0
00F800
00F800
00F800
00F800
00F800
00F800
00F800
00F800
00F800
00F800
00F800
00F800
00F800
00F800
00F800
00F800
00F800
00F800
00F800
00F800
00F800
00F800
00F800
00F800
00F800
00F800
00F800
00F800
00F800
00F800
00F800
00F800
00F800
00F800
00F800
3FFFE0
3FFFE0
3FFFE0
3FFFE0
3FFFE0
ENDCHAR
STARTCHAR Idieresis
ENCODING 207
SWIDTH 539 0
DWIDTH 34 0
BBX 18 52 8 0
BITMAP
FC07C0
FC07C0
FC07C0
FC07C0
FC07C0
000000
000000
7FFFC0
7FFFC0
7FFFC0
7FFFC0
7FFFC0
03F000
03F000
03F000
03F000
03F000
03F000
03F000
03F000
03F000
03F000
03F000
03F000
03F000
03F000
03F000
03F000
03F000
03F000
03F000
03F000
03F000
03F000
03F000
03F000
03F000
03F000
03F000
03F000
03F000
03F000
03F000
03F000
03F000
03F000
03F000
7FFFC0
7FFFC0
7FFFC0
7FFFC0
7FFFC0
ENDCHAR
STARTCHAR Eth
ENCODING 208
SWIDTH 539 0
DWIDTH 34 0
BBX 28 45 2 0
BITMAP
0FFFF800
0FFFFF00
0FFFFF80
0FFFFFC0
0FFFFFE0
0F800FE0
0F8007E0
0F8003F0
0F8003F0
0F8003F0
0F8003F0
0F8003F0
0F8003F0
0F8003F0
0F8003F0
0F8003F0
0F8003F0
0F8003F0
0F8003F0
FFFF83F0
FFFF83F0
FFFF83F0
FFFF83F0
FFFF83F0
0F8003F0
0F8003F0
0F8003F0
0F8003F0
0F8003F0
0F8003F0
0F8003F0
0F8003F0
0F8003F0
0F8003F0
0F8003F0
0F8003F0
0F8003F0
0F8003F0
0F8003F0
0F8007E0
0FFFFFE0
0FFFFFC0
0FFFFFC0
0FFFFF00
0FFFFC00
ENDCHAR
STARTCHAR Ntilde
ENCODING 209
SWIDTH 539 0
DWIDTH 34 0
BBX 24 54 5 0
BITMAP
01E004
07F808
0FFE38
0FFFF8
0FFFF8
0E1FF8
0807F0
0001C0
000000
FF801F
FFC01F
FFC01F
FFC01F
FFC01F
FFE01F
FBE01F
FBE01F
FBE01F
FBF01F
F9F01F
F9F01F
F9F01F
F9F81F
F8F81F
F8F81F
F8F81F
F8FC1F
F87C1F
F87C1F
F87C1F
F87E1F
F83E1F
F83E1F
F83E1F
F83F1F
F81F1F
F81F1F
F81F1F
F81F9F
F80F9F
F80F9F
F80F9F
F80FDF
F807DF
F807DF
F807DF
F807FF
F803FF
F803FF
F803FF
F803FF
F801FF
F801FF
F801FF
ENDCHAR
STARTCHAR Ograve
ENCODING 210
SWIDTH 539 0
DWIDTH 34 0
BBX 26 54 4 0
BITMAP
07F00000
03F80000
01FC0000
007E0000
003F0000
001F8000
000FC000
0007C000
00000000
00FFE000
07FFF800
0FFFFE00
1FFFFF00
3FFFFF80
7F803F80
7E001F80
7E000FC0
7C000FC0
7C0007C0
FC0007C0
FC0007C0
FC0007C0
FC0007C0
FC0007C0
FC0007C0
FC0007C0
FC0007C0
FC0007C0
FC0007C0
FC0007C0
FC0007C0
FC0007C0
FC0007C0
FC0007C0
FC0007C0
FC0007C0
FC0007C0
FC0007C0
FC0007C0
FC0007C0
FC0007C0
FC0007C0
FC0007C0
FC0007C0
7C000FC0
7C000FC0
7E000FC0
7E001F80
7F803F80
3FFFFF80
1FFFFF00
0FFFFE00
07FFF800
00FFE000
ENDCHAR
STARTCHAR Oacute
ENCODING 211
SWIDTH 539 0
DWIDTH 34 0
BBX 26 54 4 0
BITMAP
0003FC00
0007F000
000FE000
001FC000
003F0000
003E0000
007C0000
00F80000
00000000
00FFE000
07FFF800
0FFFFE00
1FFFFF00
3FFFFF80
7F803F80
7E001F80
7E000FC0
7C000FC0
7C0007C0
FC0007C0
FC0007C0
FC0007C0
FC0007C0
FC0007C0
FC0007C0
FC0007C0
FC0007C0
FC0007C0
FC0007C0
FC0007C0
FC0007C0
FC0007C0
FC0007C0
FC0007C0
FC0007C0
FC0007C0
FC0007C0
FC0007C0
FC0007C0
FC0007C0
FC0007C0
FC0007C0
FC0007C0
FC0007C0
7C000FC0
7C000FC0
7E000FC0
7E001F80
7F803F80
3FFFFF80
1FFFFF00
0FFFFE00
07FFF800
00FFE000
ENDCHAR
STARTCHAR Ocircumflex
ENCODING 212
SWIDTH 539 0
DWIDTH 34 0
BBX 26 54 4 0
BITMAP
003F8000
007FC000
00FFE000
01FFE000
03F3F000
07E1F800
0FC0FC00
1F807E00
00000000
00FFE000
07FFF800
0FFFFE00
1FFFFF00
3FFFFF80
7F803F80
7E001F80
7E000FC0
7C000FC0
7C0007C0
FC0007C0
FC0007C0
FC0007C0
FC0007C0
FC0007C0
FC0007C0
FC0007C0
FC0007C0
FC0007C0
FC0007C0
FC0007C0
FC0007C0
FC0007C0
FC0007C0
FC0007C0
FC0007C0
FC0007C0
FC0007C0
FC0007C0
FC0007C0
FC0007C0
FC0007C0
FC0007C0
FC0007C0
FC0007C0
7C000FC0
7C000FC0
7E000FC0
7E001F80
7F803F80
3FFFFF80
1FFFFF00
0FFFFE00
07FFF800
00FFE000
ENDCHAR
STARTCHAR Otilde
ENCODING 213
SWIDTH 539 0
DWIDTH 34 0
BBX 26 54 4 0
BITMAP
00F00200
03FC0400
0FFF1C00
0FFFFC00
0FFFFC00
0F0FFC00
0C03F800
0000E000
00000000
00FFE000
07FFF800
0FFFFE00
1FFFFF00
3FFFFF80
7F803F80
7E001F80
7E000FC0
7C000FC0
7C0007C0
FC0007C0
FC0007C0
FC0007C0
FC0007C0
FC0007C0
FC0007C0
FC0007C0
FC0007C0
FC0007C0
FC0007C0
FC0007C0
FC0007C0
FC0007C0
FC0007C0
FC0007C0
FC0007C0
FC0007C0
FC0007C0
FC0007C0
FC0007C0
FC0007C0
FC0007C0
FC0007C0
FC0007C0
FC0007C0
7C000FC0
7C000FC0
7E000FC0
7E001F80
7F803F80
3FFFFF80
1FFFFF00
0FFFFE00
07FFF800
00FFE000
ENDCHAR
STARTCHAR Odieresis
ENCODING 214
SWIDTH 539 0
DWIDTH 34 0
BBX 26 52 4 0
BITMAP
0FC07E00
0FC07E00
0FC07E00
0FC07E00
0FC07E00
00000000
00000000
00FFE000
07FFF800
0FFFFE00
1FFFFF00
3FFFFF80
7F803F80
7E001F80
7E000FC0
7C000FC0
7C0007C0
FC0007C0
FC0007C0
FC0007C0
FC0007C0
FC0007C0
FC0007C0
FC0007C0
FC0007C0
FC0007C0
FC0007C0
FC0007C0
FC0007C0
FC0007C0
FC0007C0
FC0007C0
FC0007C0
FC0007C0
FC0007C0
FC0007C0
FC0007C0
FC0007C0
FC0007C0
FC0007C0
FC0007C0
FC0007C0
7C000FC0
7C000FC0
7E000FC0
7E001F80
7F803F80
3FFFFF80
1FFFFF00
0FFFFE00
07FFF800
00FFE000
ENDCHAR
STARTCHAR multiply
ENCODING 215
SWIDTH 539 0
DWIDTH 34 0
BBX 22 22 6 9
BITMAP
100020
380070
7C00F8
FE01FC
7F03FC
3F87F8
1FCFF0
0FFFE0
07FFC0
03FF80
01FF00
01FE00
03FF00
07FF80
0FFFC0
1FEFE0
3FC7F0
7F83F8
FF01FC
7E00FC
3C0078
180030
ENDCHAR
STARTCHAR Oslash
ENCODING 216
SWIDTH 539 0
DWIDTH 34 0
BBX 26 57 4 -6
BITMAP
00001E00
00003E00
00003E00
00003E00
00007C00
00007C00
00FFFC00
07FFF800
0FFFFE00
1FFFFF00
3FFFFF80
7F01FF80
7E01FF80
7E01FFC0
7C01FFC0
7C03EFC0
FC03E7C0
FC03E7C0
FC07C7C0
FC07C7C0
FC07C7C0
FC07C7C0
FC0F87C0
FC0F87C0
FC0F87C0
FC0F87C0
FC1F07C0
FC1F07C0
FC1F07C0
FC3E07C0
FC3E07C0
FC3E07C0
FC3E07C0
FC7C07C0
FC7C07C0
FC7C07C0
FCF807C0
FCF807C0
FCF807C0
FCF807C0
FDF007C0
7DF00FC0
7DF00FC0
7FF00FC0
7FE01F80
7FE03F80
3FFFFF80
1FFFFF00
0FFFFE00
07FFF800
07FFE000
0F800000
0F800000
0F800000
0F800000
1F000000
1F000000
ENDCHAR
STARTCHAR Ugrave
ENCODING 217
SWIDTH 539 0
DWIDTH 34 0
BBX 25 54 5 0
BITMAP
3FC00000
0FE00000
07F00000
03F80000
01FC0000
007C0000
003E0000
001F0000
00000000
FC001F80
FC001F80
FC001F80
FC001F80
FC001F80
FC001F80
FC001F80
FC001F80
FC001F80
FC001F80
FC001F80
FC001F80
FC001F80
FC001F80
FC001F80
FC001F80
FC001F80
FC001F80
FC001F80
FC001F80
FC001F80
FC001F80
FC001F80
FC001F80
FC001F80
FC001F80
FC001F80
FC001F80
FC001F80
FC001F80
FC001F80
FC001F80
FC001F80
FC001F80
FC001F80
FC001F80
FC001F00
FC003F00
7E003F00
7F007F00
7FFFFE00
3FFFFC00
1FFFF800
07FFF000
01FF8000
ENDCHAR
STARTCHAR Uacute
ENCODING 218
SWIDTH 539 0
DWIDTH 34 0
BBX 25 54 5 0
BITMAP
0001FC00
0003F800
0007E000
000FC000
001F8000
003F0000
007E0000
00FC0000
00000000
FC001F80
FC001F80
FC001F80
FC001F80
FC001F80
FC001F80
FC001F80
FC001F80
FC001F80
FC001F80
FC001F80
FC001F80
FC001F80
FC001F80
FC001F80
FC001F80
FC001F80
FC001F80
FC001F80
FC001F80
FC001F80
FC001F80
FC001F80
FC001F80
FC001F80
FC001F80
FC001F80
FC001F80
FC001F80
FC001F80
FC001F80
FC001F80
FC001F80
FC001F80
FC001F80
FC001F80
FC001F00
FC003F00
7E003F00
7F007F00
7FFFFE00
3FFFFC00
1FFFF800
07FFF000
01FF8000
ENDCHAR
STARTCHAR Ucircumflex
ENCODING 219
SWIDTH 539 0
DWIDTH 34 0
BBX 25 54 5 0
BITMAP
007F0000
00FF8000
01FFC000
03F7E000
07E3F000
0FE1F800
1FC1FC00
1F80FE00
00000000
FC001F80
FC001F80
FC001F80
FC001F80
FC001F80
FC001F80
FC001F80
FC001F80
FC001F80
FC001F80
FC001F80
FC001F80
FC001F80
FC001F80
FC001F80
FC001F80
FC001F80
FC001F80
FC001F80
FC001F80
FC001F80
FC001F80
FC001F80
FC001F80
FC001F80
FC001F80
FC001F80
FC001F80
FC001F80
FC001F80
FC001F80
FC001F80
FC001F80
FC001F80
FC001F80
FC001F80
FC001F00
FC003F00
7E003F00
7F007F00
7FFFFE00
3FFFFC00
1FFFF800
07FFF000
01FF8000
ENDCHAR
STARTCHAR Udieresis
ENCODING 220
SWIDTH 539 0
DWIDTH 34 0
BBX 25 52 5 0
BITMAP
1F80FC00
1F80FC00
1F80FC00
1F80FC00
1F80FC00
00000000
00000000
FC001F80
FC001F80
FC001F80
FC001F80
FC001F80
FC001F80
FC001F80
FC001F80
FC001F80
FC001F80
FC001F80
FC001F80
FC001F80
FC001F80
FC001F80
FC001F80
FC001F80
FC001F80
FC001F80
FC001F80
FC001F80
FC001F80
FC001F80
FC001F80
FC001F80
FC001F80
FC001F80
FC001F80
FC001F80
FC001F80
FC001F80
FC001F80
FC001F80
FC001F80
FC001F80
FC001F80
FC001F00
FC003F00
7E003F00
7F007F00
7FFFFE00
3FFFFC00
1FFFF800
07FFF000
01FF8000
ENDCHAR
STARTCHAR Yacute
ENCODING 221
SWIDTH 539 0
DWIDTH 34 0
BBX 29 54 3 0
BITMAP
0001FE00
0003F800
0007F000
000FE000
000FC000
001F0000
003E0000
007C0000
00000000
FC0001F8
7E0003F0
7E0003F0
7F0007E0
3F0007E0
3F000FC0
1F800FC0
1F801F80
0FC01F80
0FC01F00
07E03F00
07E03E00
03F07E00
03F07C00
01F0FC00
01F8F800
00F9F800
00FDF000
007DF000
007FE000
003FE000
003FC000
003FC000
001F8000
001F8000
001F8000
001F8000
001F8000
001F8000
001F8000
001F8000
001F8000
001F8000
001F8000
001F8000
001F8000
001F8000
001F8000
001F8000
001F8000
001F8000
001F8000
001F8000
001F8000
001F8000
ENDCHAR
STARTCHAR Thorn
ENCODING 222
SWIDTH 539 0
DWIDTH 34 0
BBX 23 45 6 0
BITMAP
FC0000
FC0000
FC0000
FC0000
FC0000
FC0000
FC0000
FC0000
FFFF00
FFFFE0
FFFFF0
FFFFF8
FFFFFC
FC01FC
FC007E
FC007E
FC007E
FC003E
FC003E
FC003E
FC003E
FC003E
FC003E
FC003E
FC003E
FC003E
FC003E
FC007E
FC007E
FC007E
FC00FC
FFFFFC
FFFFF8
FFFFF0
FFFFE0
FFFF00
FC0000
FC0000
FC0000
FC0000
FC0000
FC0000
FC0000
FC0000
FC0000
ENDCHAR
STARTCHAR germandbls
ENCODING 223
SWIDTH 539 0
DWIDTH 34 0
BBX 25 45 5 0
BITMAP
03FF8000
0FFFE000
3FFFF000
3FFFF800
7FFFFC00
FE00FC00
FC007E00
FC007E00
F8007E00
F8003E00
F8003E00
F8003E00
F8003E00
F8003E00
F803FE00
F81FFE00
F83FFE00
F83FFE00
F87FFE00
F87E0000
F87E0000
F87C0000
F87C0000
F87E0000
F87E0000
F83FF000
F83FFC00
F81FFE00
F80FFF00
F803FF00
F8003F80
F8001F80
F8001F80
F8001F80
F8001F80
F8001F80
F8001F80
F8001F80
F8001F80
F8001F80
F87FFF00
F87FFF00
F87FFE00
F87FFC00
F87FF000
ENDCHAR
STARTCHAR agrave
ENCODING 224
SWIDTH 539 0
DWIDTH 34 0
BBX 26 46 4 0
BITMAP
07F00000
03F00000
01F80000
00FC0000
00FE0000
007E0000
003F0000
001F8000
000FC000
00000000
00000000
00000000
00000000
00000000
1FFF8000
1FFFE000
1FFFF000
1FFFF800
1FFFFC00
0000FC00
00007E00
00007E00
00003E00
00003E00
00003E00
00003E00
01FFFE00
0FFFFE00
1FFFFE00
3FFFFE00
7FFFFE00
7F003E00
7E003E00
FC003E00
FC003E00
FC003E00
FC003E00
FC003E00
FC003E00
FC007E00
7E007E00
7FFFFFC0
7FFFFFC0
3FFFFFC0
1FFFEFC0
07FF87C0
ENDCHAR
STARTCHAR aacute
ENCODING 225
SWIDTH 539 0
DWIDTH 34 0
BBX 26 46 4 0
BITMAP
0001FC00
0003F800
0003F000
0007E000
000FC000
000F8000
001F8000
003F0000
007E0000
00000000
00000000
00000000
00000000
00000000
1FFF8000
1FFFE000
1FFFF000
1FFFF800
1FFFFC00
0000FC00
00007E00
00007E00
00003E00
00003E00
00003E00
00003E00
01FFFE00
0FFFFE00
1FFFFE00
3FFFFE00
7FFFFE00
7F003E00
7E003E00
FC003E00
FC003E00
FC003E00
FC003E00
FC003E00
FC003E00
FC007E00
7E007E00
7FFFFFC0
7FFFFFC0
3FFFFFC0
1FFFEFC0
07FF87C0
ENDCHAR
STARTCHAR acircumflex
ENCODING 226
SWIDTH 539 0
DWIDTH 34 0
BBX 26 46 4 0
BITMAP
007E0000
00FF0000
01FF8000
01FFC000
03F7E000
07E7E000
0FC3F000
1FC1F800
3F80FC00
00000000
00000000
00000000
00000000
00000000
1FFF8000
1FFFE000
1FFFF000
1FFFF800
1FFFFC00
0000FC00
00007E00
00007E00
00003E00
00003E00
00003E00
00003E00
01FFFE00
0FFFFE00
1FFFFE00
3FFFFE00
7FFFFE00
7F003E00
7E003E00
FC003E00
FC003E00
FC003E00
FC003E00
FC003E00
FC003E00
FC007E00
7E007E00
7FFFFFC0
7FFFFFC0
3FFFFFC0
1FFFEFC0
07FF87C0
ENDCHAR
STARTCHAR atilde
ENCODING 227
SWIDTH 539 0
DWIDTH 34 0
BBX 26 45 4 0
BITMAP
03E00800
1FF83800
1FFFF800
1FFFF800
1FFFF800
1C1FF000
1003C000
00000000
00000000
00000000
00000000
00000000
00000000
1FFF8000
1FFFE000
1FFFF000
1FFFF800
1FFFFC00
0000FC00
00007E00
00007E00
00003E00
00003E00
00003E00
00003E00
01FFFE00
0FFFFE00
1FFFFE00
3FFFFE00
7FFFFE00
7F003E00
7E003E00
FC003E00
FC003E00
FC003E00
FC003E00
FC003E00
FC003E00
FC007E00
7E007E00
7FFFFFC0
7FFFFFC0
3FFFFFC0
1FFFEFC0
07FF87C0
ENDCHAR
STARTCHAR adieresis
ENCODING 228
SWIDTH 539 0
DWIDTH 34 0
BBX 26 43 4 0
BITMAP
1F00F800
1F00F800
1F00F800
1F00F800
1F00F800
00000000
00000000
00000000
00000000
00000000
00000000
1FFF8000
1FFFE000
1FFFF000
1FFFF800
1FFFFC00
0000FC00
00007E00
00007E00
00003E00
00003E00
00003E00
00003E00
01FFFE00
0FFFFE00
1FFFFE00
3FFFFE00
7FFFFE00
7F003E00
7E003E00
FC003E00
FC003E00
FC003E00
FC003E00
FC003E00
FC003E00
FC007E00
7E007E00
7FFFFFC0
7FFFFFC0
3FFFFFC0
1FFFEFC0
07FF87C0
ENDCHAR
STARTCHAR aring
ENCODING 229
SWIDTH 539 0
DWIDTH 34 0
BBX 26 48 4 0
BITMAP
007E0000
00FF8000
01FF8000
03C3C000
03C3C000
03C3C000
03C3C000
03C3C000
03C3C000
01C3C000
01FF8000
00FF0000
007E0000
00000000
00000000
00000000
1FFF8000
1FFFE000
1FFFF000
1FFFF800
1FFFFC00
0000FC00
00007E00
00007E00
00003E00
00003E00
00003E00
00003E00
01FFFE00
0FFFFE00
1FFFFE00
3FFFFE00
7FFFFE00
7F003E00
7E003E00
FC003E00
FC003E00
FC003E00
FC003E00
FC003E00
FC003E00
FC007E00
7E007E00
7FFFFFC0
7FFFFFC0
3FFFFFC0
1FFFEFC0
07FF87C0
ENDCHAR
STARTCHAR ae
ENCODING 230
SWIDTH 539 0
DWIDTH 34 0
BBX 31 32 2 0
BITMAP
3FF03FC0
3FFC7FF0
3FFFFFF8
3FFFFFFC
3FFFFFFC
001FE07C
000FE07E
0007C03E
0007C03E
0007C03E
0007C03E
0007C03E
0007C03E
07FFFFFE
1FFFFFFE
3FFFFFFE
7FFFFFFE
FFFFFFFE
FC07C000
F807C000
F807C000
F807C000
F807C000
F807C000
F807C000
F807E000
FC0FF000
FFFFFFF8
7FFFFFF8
7FFEFFF8
3FFC7FF8
0FF01FF8
ENDCHAR
STARTCHAR ccedilla
ENCODING 231
SWIDTH 539 0
DWIDTH 34 0
BBX 19 45 8 -13
BITMAP
03FFE0
0FFFE0
3FFFE0
7FFFE0
7FFFE0
FE0000
FC0000
F80000
F80000
F80000
F80000
F80000
F80000
F80000
F80000
F80000
F80000
F80000
F80000
F80000
F80000
F80000
F80000
F80000
F80000
FC0000
FE0000
7FFFE0
7FFFE0
3FFFE0
1FFFE0
03FFE0
01F000
01F800
01FF00
01FF80
01FF80
000F80
0007C0
0007C0
000F80
03FF80
03FF80
03FF00
03FE00
ENDCHAR
STARTCHAR egrave
ENCODING 232
SWIDTH 539 0
DWIDTH 34 0
BBX 22 46 6 0
BITMAP
0FE000
07F000
03F800
01F800
00FC00
007E00
003F00
001F00
001F80
000000
000000
000000
000000
000000
03FF80
1FFFE0
3FFFF0
7FFFF8
7FFFF8
7E00FC
FC007C
FC007C
F8007C
F8007C
F8007C
F8007C
F8007C
FFFFFC
FFFFFC
FFFFFC
FFFFFC
FFFFFC
F80000
F80000
F80000
F80000
F80000
F80000
FC0000
FC0000
7E0000
7FFFF0
3FFFF0
1FFFF0
0FFFF0
03FFF0
ENDCHAR
STARTCHAR eacute
ENCODING 233
SWIDTH 539 0
DWIDTH 34 0
BBX 22 46 6 0
BITMAP
0003F8
0007F0
0007E0
000FC0
001F80
001F80
003F00
007E00
00FC00
000000
000000
000000
000000
000000
03FF80
1FFFE0
3FFFF0
7FFFF8
7FFFF8
7E00FC
FC007C
FC007C
F8007C
F8007C
F8007C
F8007C
F8007C
FFFFFC
FFFFFC
FFFFFC
FFFFFC
FFFFFC
F80000
F80000
F80000
F80000
F80000
F80000
FC0000
FC0000
7E0000
7FFFF0
3FFFF0
1FFFF0
0FFFF0
03FFF0
ENDCHAR
STARTCHAR ecircumflex
ENCODING 234
SWIDTH 539 0
DWIDTH 34 0
BBX 22 46 6 0
BITMAP
00FE00
01FE00
01FF00
03FF80
07EFC0
0FCFE0
1F87E0
1F83F0
7F01F8
000000
000000
000000
000000
000000
03FF80
1FFFE0
3FFFF0
7FFFF8
7FFFF8
7E00FC
FC007C
FC007C
F8007C
F8007C
F8007C
F8007C
F8007C
FFFFFC
FFFFFC
FFFFFC
FFFFFC
FFFFFC
F80000
F80000
F80000
F80000
F80000
F80000
FC0000
FC0000
7E0000
7FFFF0
3FFFF0
1FFFF0
0FFFF0
03FFF0
ENDCHAR
STARTCHAR edieresis
ENCODING 235
SWIDTH 539 0
DWIDTH 34 0
BBX 22 43 6 0
BITMAP
1F01F8
1F01F8
1F01F8
1F01F8
1F01F8
000000
000000
000000
000000
000000
000000
03FF80
1FFFE0
3FFFF0
7FFFF8
7FFFF8
7E00FC
FC007C
FC007C
F8007C
F8007C
F8007C
F8007C
F8007C
FFFFFC
FFFFFC
FFFFFC
FFFFFC
FFFFFC
F80000
F80000
F80000
F80000
F80000
F80000
FC0000
FC0000
7E0000
7FFFF0
3FFFF0
1FFFF0
0FFFF0
03FFF0
ENDCHAR
STARTCHAR igrave
ENCODING 236
SWIDTH 539 0
DWIDTH 34 0
BBX 24 46 5 0
BITMAP
07F000
03F000
01F800
00FC00
00FE00
007E00
003F00
001F80
000FC0
000000
000000
000000
000000
000000
FFFE00
FFFE00
FFFE00
FFFE00
FFFE00
003E00
003E00
003E00
003E00
003E00
003E00
003E00
003E00
003E00
003E00
003E00
003E00
003E00
003E00
003E00
003E00
003E00
003E00
003E00
003E00
003E00
003E00
003FFF
003FFF
003FFF
003FFF
003FFF
ENDCHAR
STARTCHAR iacute
ENCODING 237
SWIDTH 539 0
DWIDTH 34 0
BBX 24 46 5 0
BITMAP
0003F8
0003F0
0007E0
000FC0
001FC0
001F80
003F00
007E00
00FC00
000000
000000
000000
000000
000000
FFFE00
FFFE00
FFFE00
FFFE00
FFFE00
003E00
003E00
003E00
003E00
003E00
003E00
003E00
003E00
003E00
003E00
003E00
003E00
003E00
003E00
003E00
003E00
003E00
003E00
003E00
003E00
003E00
003E00
003FFF
003FFF
003FFF
003FFF
003FFF
ENDCHAR
STARTCHAR icircumflex
ENCODING 238
SWIDTH 539 0
DWIDTH 34 0
BBX 24 46 5 0
BITMAP
007F00
00FF80
00FF80
01FFC0
03F7E0
07E3F0
0FE3F8
0FC1F8
3F80FE
000000
000000
000000
000000
000000
FFFE00
FFFE00
FFFE00
FFFE00
FFFE00
003E00
003E00
003E00
003E00
003E00
003E00
003E00
003E00
003E00
003E00
003E00
003E00
003E00
003E00
003E00
003E00
003E00
003E00
003E00
003E00
003E00
003E00
003FFF
003FFF
003FFF
003FFF
003FFF
ENDCHAR
STARTCHAR idieresis
ENCODING 239
SWIDTH 539 0
DWIDTH 34 0
BBX 24 43 5 0
BITMAP
1F80F8
1F80F8
1F80F8
1F80F8
1F80F8
000000
000000
000000
000000
000000
000000
FFFE00
FFFE00
FFFE00
FFFE00
FFFE00
003E00
003E00
003E00
003E00
003E00
003E00
003E00
003E00
003E00
003E00
003E00
003E00
003E00
003E00
003E00
003E00
003E00
003E00
003E00
003E00
003E00
003E00
003FFF
003FFF
003FFF
003FFF
003FFF
ENDCHAR
STARTCHAR eth
ENCODING 240
SWIDTH 539 0
DWIDTH 34 0
BBX 22 48 6 0
BITMAP
0007C0
000F80
001F80
1FFF00
1FFFC0
1FFFE0
1FFFF0
1FFFF8
00FBF8
01F8FC
01F0FC
03E07C
00007C
00007C
00007C
00007C
00007C
00007C
00FFFC
0FFFFC
1FFFFC
3FFFFC
7FFFFC
7F007C
FC007C
FC007C
FC007C
F8007C
F8007C
F8007C
F8007C
F8007C
F8007C
F8007C
F8007C
F8007C
F8007C
F8007C
F8007C
FC007C
FC007C
7E00FC
7F01F8
3FFFF8
3FFFF0
1FFFE0
07FFC0
01FF00
ENDCHAR
STARTCHAR ntilde
ENCODING 241
SWIDTH 539 0
DWIDTH 34 0
BBX 23 45 6 0
BITMAP
03E008
1FF838
1FFFF8
1FFFF8
1FFFF8
1C1FF0
1003C0
000000
000000
000000
000000
000000
000000
F9FF80
FFFFE0
FFFFF8
FFFFF8
FFFFFC
FE00FC
FC007E
F8007E
F8003E
F8003E
F8003E
F8003E
F8003E
F8003E
F8003E
F8003E
F8003E
F8003E
F8003E
F8003E
F8003E
F8003E
F8003E
F8003E
F8003E
F8003E
F8003E
F8003E
F8003E
F8003E
F8003E
F8003E
ENDCHAR
STARTCHAR ograve
ENCODING 242
SWIDTH 539 0
DWIDTH 34 0
BBX 24 46 5 0
BITMAP
07F000
03F800
01FC00
00FC00
007E00
003F00
001F80
000F80
000FC0
000000
000000
000000
000000
000000
01FF80
0FFFF0
1FFFF8
3FFFFC
7FFFFE
7E007E
FC003F
FC003F
FC003F
FC003F
FC003F
FC003F
FC003F
FC003F
FC003F
FC003F
FC003F
FC003F
FC003F
FC003F
FC003F
FC003F
FC003F
FC003F
FC003F
FC003F
7E007E
7FFFFE
3FFFFC
1FFFF8
0FFFF0
01FF80
ENDCHAR
STARTCHAR oacute
ENCODING 243
SWIDTH 539 0
DWIDTH 34 0
BBX 24 46 5 0
BITMAP
000FE0
001FC0
001F80
003F00
007E00
00FC00
00F800
01F800
03F000
000000
000000
000000
000000
000000
01FFC0
0FFFF0
1FFFFC
3FFFFC
7FFFFE
7F007E
7C003F
FC001F
FC001F
FC001F
FC001F
FC001F
FC001F
FC001F
FC001F
FC001F
FC001F
FC001F
FC001F
FC001F
FC001F
FC001F
FC001F
FC001F
FC001F
7C003F
7F007E
7FFFFE
3FFFFE
1FFFFC
0FFFF0
01FFC0
ENDCHAR
STARTCHAR ocircumflex
ENCODING 244
SWIDTH 539 0
DWIDTH 34 0
BBX 24 46 5 0
BITMAP
007F00
00FF00
01FF80
01FFC0
03F7E0
07E7F0
0FC3F0
1FC1F8
3F80FC
000000
000000
000000
000000
000000
01FFC0
0FFFF0
1FFFFC
3FFFFC
7FFFFE
7F007E
7C003F
FC001F
FC001F
FC001F
FC001F
FC001F
FC001F
FC001F
FC001F
FC001F
FC001F
FC001F
FC001F
FC001F
FC001F
FC001F
FC001F
FC001F
FC001F
7C003F
7F007E
7FFFFE
3FFFFE
1FFFFC
0FFFF0
01FFC0
ENDCHAR
STARTCHAR otilde
ENCODING 245
SWIDTH 539 0
DWIDTH 34 0
BBX 24 45 5 0
BITMAP
03E008
0FFC18
1FFFF8
1FFFF8
1FFFF8
1C1FF8
1003E0
000000
000000
000000
000000
000000
000000
01FFC0
0FFFF0
1FFFFC
3FFFFC
7FFFFE
7F007E
7C003F
FC001F
FC001F
FC001F
FC001F
FC001F
FC001F
FC001F
FC001F
FC001F
FC001F
FC001F
FC001F
FC001F
FC001F
FC001F
FC001F
FC001F
FC001F
7C003F
7F007E
7FFFFE
3FFFFE
1FFFFC
0FFFF0
01FFC0
ENDCHAR
STARTCHAR odieresis
ENCODING 246
SWIDTH 539 0
DWIDTH 34 0
BBX 24 43 5 0
BITMAP
1F80F8
1F80F8
1F80F8
1F80F8
1F80F8
000000
000000
000000
000000
000000
000000
01FFC0
0FFFF0
1FFFFC
3FFFFC
7FFFFE
7F007E
7C003F
FC001F
FC001F
FC001F
FC001F
FC001F
FC001F
FC001F
FC001F
FC001F
FC001F
FC001F
FC001F
FC001F
FC001F
FC001F
FC001F
FC001F
FC001F
7C003F
7F007E
7FFFFE
3FFFFE
1FFFFC
0FFFF0
01FFC0
ENDCHAR
STARTCHAR divide
ENCODING 247
SWIDTH 539 0
DWIDTH 34 0
BBX 24 31 5 4
BITMAP
007E00
007E00
007E00
007E00
007E00
007E00
000000
000000
000000
000000
000000
000000
000000
FFFFFF
FFFFFF
FFFFFF
FFFFFF
FFFFFF
000000
000000
000000
000000
000000
000000
000000
007E00
007E00
007E00
007E00
007E00
007E00
ENDCHAR
STARTCHAR oslash
ENCODING 248
SWIDTH 539 0
DWIDTH 34 0
BBX 24 43 5 -5
BITMAP
0000F8
0000F8
0000F8
0001F0
0001F0
0001F0
01FFE0
0FFFF0
1FFFFC
3FFFFC
7FFFFE
7F07FE
7C07FF
FC0F9F
FC0F9F
FC0F9F
FC1F1F
FC1F1F
FC1F1F
FC3E1F
FC3E1F
FC3E1F
FC3E1F
FC7C1F
FC7C1F
FC7C1F
FCF81F
FCF81F
FCF81F
FDF01F
FDF01F
7DF03F
7FF07E
7FFFFE
3FFFFE
1FFFFC
0FFFF0
07FFC0
07C000
0F8000
0F8000
0F8000
1F8000
ENDCHAR
STARTCHAR ugrave
ENCODING 249
SWIDTH 539 0
DWIDTH 34 0
BBX 23 46 6 0
BITMAP
1FC000
0FC000
07E000
03F000
01F800
01F800
00FC00
007E00
003F00
000000
000000
000000
000000
000000
F8007E
F8007E
F8007E
F8007E
F8007E
F8007E
F8007E
F8007E
F8007E
F8007E
F8007E
F8007E
F8007E
F8007E
F8007E
F8007E
F8007E
F8007E
F8007E
F8007E
F8007E
F8007E
F8007E
F8007E
FC007E
FC007E
7E00FE
7FFFFE
3FFFFE
3FFFFE
0FFFFE
03FE7E
ENDCHAR
STARTCHAR uacute
ENCODING 250
SWIDTH 539 0
DWIDTH 34 0
BBX 23 46 6 0
BITMAP
0003F8
0007F0
0007E0
000FC0
001F80
003F00
003F00
007E00
00FC00
000000
000000
000000
000000
000000
F8007E
F8007E
F8007E
F8007E
F8007E
F8007E
F8007E
F8007E
F8007E
F8007E
F8007E
F8007E
F8007E
F8007E
F8007E
F8007E
F8007E
F8007E
F8007E
F8007E
F8007E
F8007E
F8007E
F8007E
FC007E
FC007E
7E00FE
7FFFFE
3FFFFE
3FFFFE
0FFFFE
03FE7E
ENDCHAR
STARTCHAR ucircumflex
ENCODING 251
SWIDTH 539 0
DWIDTH 34 0
BBX 23 46 6 0
BITMAP
00FC00
01FE00
03FF00
03FF80
07EFC0
0FCFC0
1F87E0
3F83F0
7F01F8
000000
000000
000000
000000
000000
F8007E
F8007E
F8007E
F8007E
F8007E
F8007E
F8007E
F8007E
F8007E
F8007E
F8007E
F8007E
F8007E
F8007E
F8007E
F8007E
F8007E
F8007E
F8007E
F8007E
F8007E
F8007E
F8007E
F8007E
FC007E
FC007E
7E00FE
7FFFFE
3FFFFE
3FFFFE
0FFFFE
03FE7E
ENDCHAR
STARTCHAR udieresis
ENCODING 252
SWIDTH 539 0
DWIDTH 34 0
BBX 23 43 6 0
BITMAP
3E01F0
3E01F0
3E01F0
3E01F0
3E01F0
000000
000000
000000
000000
000000
000000
F8007E
F8007E
F8007E
F8007E
F8007E
F8007E
F8007E
F8007E
F8007E
F8007E
F8007E
F8007E
F8007E
F8007E
F8007E
F8007E
F8007E
F8007E
F8007E
F8007E
F8007E
F8007E
F8007E
F8007E
FC007E
FC007E
7E00FE
7FFFFE
3FFFFE
3FFFFE
0FFFFE
03FE7E
ENDCHAR
STARTCHAR yacute
ENCODING 253
SWIDTH 539 0
DWIDTH 34 0
BBX 26 57 4 -11
BITMAP
0001FC00
0003F800
0003F000
0007E000
000FC000
001F8000
003F0000
003E0000
00FC0000
00000000
00000000
00000000
00000000
00000000
FC0007C0
7C000FC0
7E000FC0
7E000FC0
3E000F80
3F001F80
3F001F80
3F001F00
1F001F00
1F803F00
1F803F00
0F803E00
0FC03E00
0FC07E00
07C07C00
07E07C00
07E07C00
03E0FC00
03E0F800
03F0F800
01F0F800
01F1F000
01F9F000
00F9F000
00F9F000
00FFE000
007FE000
007FE000
007FE000
003FC000
003FC000
003FC000
000F8000
001F8000
001F8000
001F8000
001F0000
003F0000
07FF0000
07FE0000
07FC0000
07FC0000
07F00000
ENDCHAR
STARTCHAR thorn
ENCODING 254
SWIDTH 539 0
DWIDTH 34 0
BBX 23 56 6 -11
BITMAP
FC0000
FC0000
FC0000
FC0000
FC0000
FC0000
FC0000
FC0000
FC0000
FC0000
FC0000
FC0000
FC0000
FDFF80
FFFFE0
FFFFF0
FFFFF8
FFFFFC
FE00FC
FC007E
FC007E
FC003E
FC003E
FC003E
FC003E
FC003E
FC003E
FC003E
FC003E
FC003E
FC003E
FC003E
FC003E
FC003E
FC003E
FC003E
FC003E
FC007E
FC007E
FC00FC
FFFFFC
FFFFF8
FFFFF0
FFFFE0
FFFF00
FC0000
FC0000
FC0000
FC0000
FC0000
FC0000
FC0000
FC0000
FC0000
FC0000
FC0000
ENDCHAR
STARTCHAR ydieresis
ENCODING 255
SWIDTH 539 0
DWIDTH 34 0
BBX 26 54 4 -11
BITMAP
0FC07C00
0FC07C00
0FC07C00
0FC07C00
0FC07C00
00000000
00000000
00000000
00000000
00000000
00000000
FC0007C0
7C000FC0
7E000FC0
7E000FC0
3E000F80
3F001F80
3F001F80
3F001F00
1F001F00
1F803F00
1F803F00
0F803E00
0FC03E00
0FC07E00
07C07C00
07E07C00
07E07C00
03E0FC00
03E0F800
03F0F800
01F0F800
01F1F000
01F9F000
00F9F000
00F9F000
00FFE000
007FE000
007FE000
007FE000
003FC000
003FC000
003FC000
000F8000
001F8000
001F8000
001F8000
001F0000
003F0000
07FF0000
07FE0000
07FC0000
07FC0000
07F00000
ENDCHAR
STARTCHAR dotlessi
ENCODING 305
SWIDTH 539 0
DWIDTH 34 0
BBX 24 32 5 0
BITMAP
FFFE00
FFFE00
FFFE00
FFFE00
FFFE00
003E00
003E00
003E00
003E00
003E00
003E00
003E00
003E00
003E00
003E00
003E00
003E00
003E00
003E00
003E00
003E00
003E00
003E00
003E00
003E00
003E00
003E00
003FFF
003FFF
003FFF
003FFF
003FFF
ENDCHAR
STARTCHAR Lslash
ENCODING 321
SWIDTH 539 0
DWIDTH 34 0
BBX 25 45 5 0
BITMAP
03E00000
03E00000
03E00000
03E00000
03E00000
03E00000
03E00000
03E00000
03E00000
03E00000
03E00000
03E00000
03E04000
03E1C000
03E7C000
03FFC000
03FFC000
03FF8000
0FFE0000
3FF80000
FFE00000
FFE00000
FFE00000
FBE00000
E3E00000
83E00000
03E00000
03E00000
03E00000
03E00000
03E00000
03E00000
03E00000
03E00000
03E00000
03E00000
03E00000
03E00000
03E00000
03E00000
03FFFF80
03FFFF80
03FFFF80
03FFFF80
03FFFF80
ENDCHAR
STARTCHAR lslash
ENCODING 322
SWIDTH 539 0
DWIDTH 34 0
BBX 26 45 4 0
BITMAP
FFFE0000
FFFE0000
FFFE0000
FFFE0000
FFFE0000
003E0000
003E0000
003E0000
003E0000
003E0000
003E0000
003E0000
003E0000
003E0000
003E0000
003E0000
003E1C00
003EFC00
003FFC00
007FFC00
03FFFC00
07FFF000
07FF0000
07FE0000
07BE0000
043E0000
003E0000
003E0000
003E0000
003E0000
003E0000
003E0000
003E0000
003E0000
003E0000
003E0000
003E0000
003E0000
003E0000
003F0000
003FFFC0
003FFFC0
001FFFC0
000FFFC0
0007FFC0
ENDCHAR
STARTCHAR OE
ENCODING 338
SWIDTH 539 0
DWIDTH 34 0
BBX 31 45 2 0
BITMAP
01FFFFFE
0FFFFFFE
1FFFFFFE
3FFFFFFE
7FFFFFFE
7F03F800
FC01F800
FC00F800
F800FC00
F800FC00
F800FC00
F800FC00
F800FC00
F800FC00
F800FC00
F800FC00
F800FC00
F800FC00
F800FC00
F800FFFE
F800FFFE
F800FFFE
F800FFFE
F800FFFE
F800FC00
F800FC00
F800FC00
F800FC00
F800FC00
F800FC00
F800FC00
F800FC00
F800FC00
F800FC00
F800FC00
F800FC00
F800FC00
FC00F800
FC01F800
7F03F800
7FFFFFFE
3FFFFFFE
1FFFFFFE
0FFFFFFE
01FFFFFE
ENDCHAR
STARTCHAR oe
ENCODING 339
SWIDTH 539 0
DWIDTH 34 0
BBX 31 32 2 0
BITMAP
07F81FC0
1FFE7FF0
3FFFFFF8
7FFFFFFC
FFFFFFFC
FC0FF07E
F807E03E
F807E03E
F807E03E
F807E03E
F807E03E
F807E03E
F807E03E
F807FFFE
F807FFFE
F807FFFE
F807FFFE
F807FFFE
F807E000
F807E000
F807E000
F807E000
F807E000
F807E000
F807E000
F807E000
FC0FF000
7FFFFFF8
7FFFFFF8
3FFFFFF8
1FFE7FF8
07F81FF8
ENDCHAR
STARTCHAR Scaron
ENCODING 352
SWIDTH 539 0
DWIDTH 34 0
BBX 22 54 6 0
BITMAP
3F81FC
1FC1F8
0FC3F0
07E7E0
03FFC0
01FF80
00FF00
007E00
000000
00FFF8
07FFF8
0FFFF8
1FFFF8
3FFFF8
7F0000
7E0000
7C0000
7C0000
FC0000
FC0000
FC0000
FC0000
FC0000
FC0000
7C0000
7C0000
7E0000
7F0000
3FFE00
3FFFC0
1FFFE0
07FFF0
01FFF8
0001F8
0000FC
0000FC
0000FC
00007C
00007C
00007C
00007C
00007C
00007C
00007C
00007C
0000FC
0000FC
0001F8
0003F8
7FFFF8
7FFFF0
7FFFE0
7FFF80
7FFE00
ENDCHAR
STARTCHAR scaron
ENCODING 353
SWIDTH 539 0
DWIDTH 34 0
BBX 21 46 7 0
BITMAP
7E03F8
7F03F0
3F07E0
1F8FC0
0FDF80
07FF00
03FF00
01FE00
01FC00
000000
000000
000000
000000
000000
07FFC0
1FFFC0
3FFFC0
7FFFC0
7FFFC0
FE0000
FC0000
FC0000
FC0000
FC0000
FC0000
FC0000
FE0000
7FFC00
7FFF80
3FFFC0
1FFFC0
01FFE0
0007E0
0003E0
0003F0
0003F0
0003F0
0003F0
0003F0
0003E0
0007E0
FFFFE0
FFFFC0
FFFFC0
FFFF00
FFFC00
ENDCHAR
STARTCHAR Ydieresis
ENCODING 376
SWIDTH 539 0
DWIDTH 34 0
BBX 29 52 3 0
BITMAP
07E03E00
07E03E00
07E03E00
07E03E00
07E03E00
00000000
00000000
FC0001F8
7E0003F0
7E0003F0
7F0007E0
3F0007E0
3F000FC0
1F800FC0
1F801F80
0FC01F80
0FC01F00
07E03F00
07E03E00
03F07E00
03F07C00
01F0FC00
01F8F800
00F9F800
00FDF000
007DF000
007FE000
003FE000
003FC000
003FC000
001F8000
001F8000
001F8000
001F8000
001F8000
001F8000
001F8000
001F8000
001F8000
001F8000
001F8000
001F8000
001F8000
001F8000
001F8000
001F8000
001F8000
001F8000
001F8000
001F8000
001F8000
001F8000
ENDCHAR
STARTCHAR Zcaron
ENCODING 381
SWIDTH 539 0
DWIDTH 34 0
BBX 23 54 6 0
BITMAP
3F80FC
0FC1F8
07E3F0
03F7E0
01FFC0
00FF80
007F00
007E00
000000
7FFFFE
7FFFFE
7FFFFE
7FFFFE
7FFFFE
00007E
0000FC
0000FC
0001F8
0001F8
0003F0
0003F0
0007E0
0007E0
000FC0
000FC0
001F80
001F80
003F00
003F00
007E00
007E00
00FC00
00FC00
01F800
01F800
03F000
03F000
07E000
07E000
0FC000
0FC000
1F8000
3F8000
3F0000
7F0000
7E0000
FE0000
FC0000
FC0000
FFFFFC
FFFFFC
FFFFFC
FFFFFC
FFFFFC
ENDCHAR
STARTCHAR zcaron
ENCODING 382
SWIDTH 539 0
DWIDTH 34 0
BBX 21 46 11 0
BITMAP
7E01F8
3F03F0
1F87E0
0FC7E0
07EFC0
07FF80
03FF00
01FE00
00FC00
000000
000000
000000
000000
000000
7FFFF8
7FFFF8
7FFFF8
7FFFF8
7FFFF8
0003F8
0007F0
0007F0
000FE0
001FC0
001FC0
003F80
007F00
007E00
00FE00
01FC00
01F800
03F800
07F000
07E000
0FE000
1FC000
1F8000
3F0000
7F0000
7E0000
FC0000
FFFFF0
FFFFF0
FFFFF0
FFFFF0
FFFFF0
ENDCHAR
STARTCHAR florin
ENCODING 402
SWIDTH 539 0
DWIDTH 34 0
BBX 26 56 5 -11
BITMAP
0007FFC0
000FFFC0
001FFFC0
003FFFC0
003FFFC0
003E0000
007E0000
007E0000
007E0000
007E0000
007E0000
007E0000
007E0000
0FFFFF80
0FFFFF80
0FFFFF80
0FFFFF80
0FFFFF80
007E0000
007E0000
007E0000
007E0000
007E0000
007E0000
007E0000
007E0000
007E0000
007E0000
007E0000
007E0000
007E0000
007E0000
007E0000
007E0000
007E0000
007E0000
007E0000
007E0000
007E0000
007E0000
007E0000
007E0000
007E0000
007E0000
007E0000
007E0000
007E0000
007E0000
007E0000
007E0000
007E0000
FFFC0000
FFFC0000
FFF80000
FFF80000
FFE00000
ENDCHAR
STARTCHAR circumflex
ENCODING 710
SWIDTH 539 0
DWIDTH 34 0
BBX 20 9 7 37
BITMAP
01F800
01FC00
03FE00
07FF00
0FFF00
1F9F80
3F0FC0
7F07E0
FE03F0
ENDCHAR
STARTCHAR caron
ENCODING 711
SWIDTH 539 0
DWIDTH 34 0
BBX 20 9 7 37
BITMAP
FC03F0
7E07E0
3F07E0
1F8FC0
0FDF80
0FFF00
07FE00
03FC00
01FC00
ENDCHAR
STARTCHAR uni02C9
ENCODING 713
SWIDTH 539 0
DWIDTH 34 0
BBX 16 5 9 39
BITMAP
FFFF
FFFF
FFFF
FFFF
FFFF
ENDCHAR
STARTCHAR breve
ENCODING 728
SWIDTH 539 0
DWIDTH 34 0
BBX 18 9 8 37
BITMAP
F807C0
F807C0
FC07C0
7C07C0
7E0FC0
7FFF80
3FFF00
1FFE00
07F800
ENDCHAR
STARTCHAR dotaccent
ENCODING 729
SWIDTH 539 0
DWIDTH 34 0
BBX 5 5 15 40
BITMAP
F8
F8
F8
F8
F8
ENDCHAR
STARTCHAR ring
ENCODING 730
SWIDTH 539 0
DWIDTH 34 0
BBX 12 13 11 35
BITMAP
0F80
3FE0
7FE0
78F0
F0F0
F070
F070
F070
F0F0
78F0
7FE0
3FE0
1F80
ENDCHAR
STARTCHAR ogonek
ENCODING 731
SWIDTH 539 0
DWIDTH 34 0
BBX 11 16 12 -11
BITMAP
F000
F000
F000
F000
F000
F000
F000
F000
F000
F000
F800
FFE0
FFE0
FFE0
7FE0
3FE0
ENDCHAR
STARTCHAR tilde
ENCODING 732
SWIDTH 539 0
DWIDTH 34 0
BBX 18 8 8 37
BITMAP
0F0040
3FC040
FFF1C0
FFFFC0
FFFFC0
F0FFC0
C03F80
800E00
ENDCHAR
STARTCHAR hungarumlaut
ENCODING 733
SWIDTH 539 0
DWIDTH 34 0
BBX 25 9 5 38
BITMAP
03FC7F80
07F8FE00
07F0FE00
0FE1FC00
1FC3F800
3F87F000
3F07E000
7E0FC000
FC1F8000
ENDCHAR
STARTCHAR uni03BC
ENCODING 956
SWIDTH 539 0
DWIDTH 34 0
BBX 21 43 7 -11
BITMAP
F800F8
F800F8
F800F8
F800F8
F800F8
F800F8
F800F8
F800F8
F800F8
F800F8
F800F8
F800F8
F800F8
F800F8
F800F8
F800F8
F800F8
F800F8
F800F8
F800F8
F800F8
F800F8
F800F8
F800F8
F801F8
FC01F8
FE03F8
FFFFF8
FFFFF8
FFFFF8
FFFFF8
FBFCF8
F80000
F80000
F80000
F80000
F80000
F80000
F80000
F80000
F80000
F80000
F80000
ENDCHAR
STARTCHAR pi
ENCODING 960
SWIDTH 539 0
DWIDTH 34 0
BBX 28 32 3 0
BITMAP
FFFFFFF0
FFFFFFF0
FFFFFFF0
FFFFFFF0
FFFFFFF0
07E07E00
07E07E00
07E07E00
07E07E00
07E07E00
07E07E00
07E07E00
07E07E00
07E07E00
07E07E00
07E07E00
07E07E00
07E07E00
07E07E00
07E07E00
07E07E00
07E07E00
07E07E00
07E07E00
07E07E00
07E07E00
07E07E00
07E07FC0
07E03FC0
07E03FC0
07E01FC0
07E00FC0
ENDCHAR
STARTCHAR endash
ENCODING 8211
SWIDTH 539 0
DWIDTH 34 0
BBX 24 5 5 18
BITMAP
FFFFFF
FFFFFF
FFFFFF
FFFFFF
FFFFFF
ENDCHAR
STARTCHAR emdash
ENCODING 8212
SWIDTH 539 0
DWIDTH 34 0
BBX 30 5 2 18
BITMAP
FFFFFFFC
FFFFFFFC
FFFFFFFC
FFFFFFFC
FFFFFFFC
ENDCHAR
STARTCHAR quoteleft
ENCODING 8216
SWIDTH 539 0
DWIDTH 34 0
BBX 8 16 13 29
BITMAP
0F
1F
1F
1F
3E
3E
3E
7E
7E
FC
FC
FC
FC
FC
FC
FC
ENDCHAR
STARTCHAR quoteright
ENCODING 8217
SWIDTH 539 0
DWIDTH 34 0
BBX 8 16 13 29
BITMAP
3F
3F
3F
3F
3F
3F
3F
3F
3E
7E
7E
7C
7C
7C
78
F8
ENDCHAR
STARTCHAR quotesinglbase
ENCODING 8218
SWIDTH 539 0
DWIDTH 34 0
BBX 8 16 13 -10
BITMAP
3F
3F
3F
3F
3F
3F
3F
3F
3E
7E
7E
7C
7C
7C
78
F8
ENDCHAR
STARTCHAR quotedblleft
ENCODING 8220
SWIDTH 539 0
DWIDTH 34 0
BBX 18 16 8 29
BITMAP
0F03C0
1F07C0
1F07C0
1F07C0
3E0F80
3E0F80
3E0F80
7E1F80
7E1F80
7E3F00
FC3F00
FC3F00
FC3F00
FC3F00
FC3F00
FC3F00
ENDCHAR
STARTCHAR quotedblright
ENCODING 8221
SWIDTH 539 0
DWIDTH 34 0
BBX 18 16 8 29
BITMAP
3F0FC0
3F0FC0
3F0FC0
3F0FC0
3F0FC0
3F0FC0
3F0FC0
3F0FC0
3E0F80
3E1F80
7E1F80
7C1F00
7C1F00
7C1F00
781E00
F83E00
ENDCHAR
STARTCHAR quotedblbase
ENCODING 8222
SWIDTH 539 0
DWIDTH 34 0
BBX 18 16 8 -10
BITMAP
3F0FC0
3F0FC0
3F0FC0
3F0FC0
3F0FC0
3F0FC0
3F0FC0
3F0FC0
3E0F80
3E1F80
7E1F80
7C1F00
7C1F00
7C1F00
781E00
F83E00
ENDCHAR
STARTCHAR dagger
ENCODING 8224
SWIDTH 539 0
DWIDTH 34 0
BBX 23 45 6 0
BITMAP
007C00
007C00
007C00
007C00
007C00
007C00
007C00
007C00
007C00
007C00
007C00
007C00
007C00
FFFFFE
FFFFFE
FFFFFE
FFFFFE
FFFFFE
007C00
007C00
007C00
007C00
007C00
007C00
007C00
007C00
007C00
007C00
007C00
007C00
007C00
007C00
007C00
007C00
007C00
007C00
007C00
007C00
007C00
007C00
007C00
007C00
007C00
007C00
007C00
ENDCHAR
STARTCHAR daggerdbl
ENCODING 8225
SWIDTH 539 0
DWIDTH 34 0
BBX 23 45 6 0
BITMAP
007C00
007C00
007C00
007C00
007C00
007C00
007C00
007C00
007C00
007C00
007C00
007C00
007C00
FFFFFE
FFFFFE
FFFFFE
FFFFFE
FFFFFE
007C00
007C00
007C00
007C00
007C00
007C00
007C00
007C00
007C00
FFFFFE
FFFFFE
FFFFFE
FFFFFE
FFFFFE
007C00
007C00
007C00
007C00
007C00
007C00
007C00
007C00
007C00
007C00
007C00
007C00
007C00
ENDCHAR
STARTCHAR bullet
ENCODING 8226
SWIDTH 539 0
DWIDTH 34 0
BBX 10 10 12 15
BITMAP
FFC0
FFC0
FFC0
FFC0
FFC0
FFC0
FFC0
FFC0
FFC0
FFC0
ENDCHAR
STARTCHAR ellipsis
ENCODING 8230
SWIDTH 539 0
DWIDTH 34 0
BBX 29 6 3 0
BITMAP
FC1F81F8
FC1F81F8
FC1F81F8
FC1F81F8
FC1F81F8
FC1F81F8
ENDCHAR
STARTCHAR perthousand
ENCODING 8240
SWIDTH 539 0
DWIDTH 34 0
BBX 33 45 1 0
BITMAP
0FE0000000
3FF8000000
7FFC000000
7FFE000000
F83E000000
F81E000000
F01F000000
F01F000000
F01F000000
F01F000000
F01F000000
F01F000000
F01F000000
F81E000000
F83E000000
7FFE000000
7FFC000000
3FF8000780
0FE003FF80
0001FFFF80
00FFFFFF80
7FFFFFF800
FFFFFC0000
FFFE000000
FF00000000
8000000000
0FE007F000
3FF80FFC00
7FFC1FFE00
7FFE3FFF00
F83E7E1F00
F81E7C0F80
F01F780F80
F01F780F80
F01F780F80
F01F780F80
F01F780F80
F01F780F80
F01F780F80
F81E7C0F80
F83E7E1F00
7FFE3FFF00
7FFC1FFE00
3FF80FFC00
0FE007F000
ENDCHAR
STARTCHAR guilsinglleft
ENCODING 8249
SWIDTH 539 0
DWIDTH 34 0
BBX 10 27 12 5
BITMAP
03C0
07C0
0780
0F80
0F80
0F80
1F00
1F00
3F00
3E00
3E00
7E00
7C00
FC00
7C00
7E00
3E00
3E00
3F00
1F00
1F00
0F80
0F80
0F80
0780
07C0
03C0
ENDCHAR
STARTCHAR guilsinglright
ENCODING 8250
SWIDTH 539 0
DWIDTH 34 0
BBX 10 27 12 5
BITMAP
F800
7800
7C00
7C00
3C00
3E00
3E00
1F00
1F00
1F00
1F80
0F80
0FC0
0FC0
0FC0
0F80
1F80
1F80
1F00
1F00
3E00
3E00
3C00
7C00
7C00
7800
F800
ENDCHAR
STARTCHAR fraction
ENCODING 8260
SWIDTH 539 0
DWIDTH 34 0
BBX 21 59 7 -7
BITMAP
0000F8
0000F0
0001F0
0001F0
0001F0
0001E0
0003E0
0003E0
0003C0
0007C0
0007C0
0007C0
000780
000F80
000F80
000F80
000F00
001F00
001F00
001E00
003E00
003E00
003E00
003C00
007C00
007C00
007800
00F800
00F800
00F800
00F000
01F000
01F000
01F000
01E000
03E000
03E000
03C000
07C000
07C000
07C000
078000
0F8000
0F8000
0F0000
1F0000
1F0000
1F0000
1E0000
3E0000
3E0000
3E0000
3C0000
7C0000
7C0000
780000
F80000
F80000
F80000
ENDCHAR
STARTCHAR Euro
ENCODING 8364
SWIDTH 539 0
DWIDTH 34 0
BBX 23 45 6 0
BITMAP
001FFE
007FFE
01FFFE
03FFFE
03FFFE
07F000
07E000
0FC000
0FC000
0FC000
0FC000
0FC000
0FC000
0FC000
FFFFF8
FFFFF8
FFFFF8
FFFFF8
FFFFF8
0FC000
0FC000
0FC000
0FC000
0FC000
0FC000
FFFFF8
FFFFF8
FFFFF8
FFFFF8
FFFFF8
0FC000
0FC000
0FC000
0FC000
0FC000
0FC000
0FC000
0FC000
07E000
07F000
03FFFE
03FFFE
01FFFE
007FFE
001FFE
ENDCHAR
STARTCHAR trademark
ENCODING 8482
SWIDTH 539 0
DWIDTH 34 0
BBX 33 33 1 12
BITMAP
FFFFF83F80
FFFFF83F80
FFFFF87F80
FFFFF87F80
07C3FC7F80
07C3FC7F80
07C3FC7F80
07C3FC7F80
07C3DCFF80
07C3DEFF80
07C3DEEF80
07C3DEEF80
07C3CEEF80
07C3CFEF80
07C3CFCF80
07C3CFCF80
07C3CFCF80
07C3C7CF80
07C3C7CF80
07C3C78F80
07C3C78F80
07C3C78F80
07C3C00F80
07C3C00F80
07C3C00F80
07C3C00F80
07C3C00F80
07C3C00F80
07C3C00F80
07C3C00F80
07C3C00F80
07C3C00F80
07C3C00F80
ENDCHAR
STARTCHAR Omega
ENCODING 8486
SWIDTH 539 0
DWIDTH 34 0
BBX 29 45 3 0
BITMAP
003FE000
01FFFC00
07FFFE00
0FFFFF00
1FFFFF80
1FC03FC0
3F000FC0
3F000FC0
3E0007E0
3E0007E0
7E0007E0
7E0007E0
7E0007E0
7E0007E0
7E0007E0
7E0007E0
7E0007E0
7E0007E0
7E0007E0
7E0007E0
7E0007E0
7E0007E0
7E0007E0
7E0007E0
7E0007E0
7E0007E0
7E0007E0
7E0007E0
7E0007E0
7E0007E0
7E0007E0
7E0007E0
7E0007E0
7E0007E0
7E0007E0
3E0007E0
3E0007E0
3F0007C0
3F000FC0
1F801FC0
FFF07FF8
FFF07FF8
FFF07FF8
FFF07FF8
FFF07FF8
ENDCHAR
STARTCHAR partialdiff
ENCODING 8706
SWIDTH 539 0
DWIDTH 34 0
BBX 23 45 6 0
BITMAP
1FFE00
1FFFC0
1FFFE0
1FFFF0
1FFFF8
0003FC
0000FC
0000FC
00007C
00007E
00007E
00007E
00007E
00007E
00007E
00007E
00007E
03FFFE
0FFFFE
1FFFFE
3FFFFE
7FFFFE
7E007E
FC007E
FC007E
FC007E
FC007E
FC007E
FC007E
FC007E
FC007E
FC007E
FC007E
FC007E
FC007E
FC007E
FC007C
FC007C
7E00FC
7F01FC
3FFFF8
3FFFF0
1FFFE0
07FFC0
01FF00
ENDCHAR
STARTCHAR Delta
ENCODING 8710
SWIDTH 539 0
DWIDTH 34 0
BBX 28 45 3 0
BITMAP
001FC000
001FC000
003FE000
003FE000
003FE000
003DE000
007DF000
007DF000
007DF000
007DF000
00F8F000
00F8F800
00F8F800
00F8F800
00F0F800
01F07C00
01F07C00
01F07C00
01F07C00
03E07E00
03E03E00
03E03E00
03E03E00
07E03E00
07C03F00
07C01F00
07C01F00
0FC01F00
0FC01F80
0F801F80
0F800F80
1F800F80
1F800F80
1F800FC0
1F000FC0
3F0007C0
3F0007C0
3F0007E0
3E0007E0
3E0007E0
7FFFFFE0
7FFFFFF0
7FFFFFF0
7FFFFFF0
FFFFFFF0
ENDCHAR
STARTCHAR product
ENCODING 8719
SWIDTH 539 0
DWIDTH 34 0
BBX 29 45 3 0
BITMAP
FFFFFFF8
FFFFFFF8
FFFFFFF8
FFFFFFF8
FFFFFFF8
07C07E00
07C07E00
07C07E00
07C07E00
07C07E00
07C07E00
07C07E00
07C07E00
07C07E00
07C07E00
07C07E00
07C07E00
07C07E00
07C07E00
07C07E00
07C07E00
07C07E00
07C07E00
07C07E00
07C07E00
07C07E00
07C07E00
07C07E00
07C07E00
07C07E00
07C07E00
07C07E00
07C07E00
07C07E00
07C07E00
07C07E00
07C07E00
07C07E00
07C07E00
07C07E00
07C03FC0
07C03FC0
07C03FC0
07C01FC0
07C007C0
ENDCHAR
STARTCHAR summation
ENCODING 8721
SWIDTH 539 0
DWIDTH 34 0
BBX 25 56 5 -11
BITMAP
7FFFFF00
7FFFFF00
7FFFFF00
7FFFFF00
7FFFFF00
7E000000
7E000000
7F000000
3F000000
3F000000
1F800000
1F800000
0FC00000
0FC00000
07E00000
07E00000
07F00000
03F00000
03F00000
01F80000
01F80000
00FC0000
00FC0000
007E0000
007E0000
003F0000
003F0000
003F8000
003F0000
003F0000
007F0000
007E0000
00FE0000
00FC0000
01FC0000
01F80000
03F80000
03F00000
07F00000
07E00000
0FE00000
0FC00000
0FC00000
1F800000
1F800000
3F000000
3F000000
7E000000
7E000000
FC000000
FC000000
FFFFFF80
FFFFFF80
FFFFFF80
FFFFFF80
FFFFFF80
ENDCHAR
STARTCHAR minus
ENCODING 8722
SWIDTH 539 0
DWIDTH 34 0
BBX 24 4 5 18
BITMAP
FFFFFF
FFFFFF
FFFFFF
FFFFFF
ENDCHAR
STARTCHAR uni2215
ENCODING 8725
SWIDTH 539 0
DWIDTH 34 0
BBX 26 58 4 -6
BITMAP
000007C0
00000FC0
00000F80
00000F80
00001F80
00001F00
00001F00
00003F00
00003E00
00003E00
00007C00
00007C00
00007C00
0000F800
0000F800
0000F800
0001F000
0001F000
0003F000
0003E000
0003E000
0007E000
0007C000
0007C000
000FC000
000F8000
000F8000
001F0000
001F0000
001F0000
003E0000
003E0000
003E0000
007C0000
007C0000
007C0000
00F80000
00F80000
01F80000
01F00000
01F00000
03F00000
03E00000
03E00000
07C00000
07C00000
07C00000
0F800000
0F800000
0F800000
1F000000
1F000000
1F000000
3E000000
3E000000
7E000000
7C000000
FC000000
ENDCHAR
STARTCHAR uni2219
ENCODING 8729
SWIDTH 539 0
DWIDTH 34 0
BBX 6 6 14 17
BITMAP
FC
FC
FC
FC
FC
FC
ENDCHAR
STARTCHAR radical
ENCODING 8730
SWIDTH 539 0
DWIDTH 34 0
BBX 32 52 1 0
BITMAP
000007FF
00000FFF
00000FFF
00000FFF
00000F80
00001F80
00001F80
00001F80
00001F00
00001F00
00003F00
00003F00
00003E00
00003E00
00003E00
00007E00
00007E00
00007C00
00007C00
00007C00
0000FC00
0000FC00
0000F800
0000F800
0001F800
0001F800
0001F000
FC01F000
7C01F000
7E03F000
7E03F000
3E03E000
3E03E000
3F03E000
3F07E000
1F07C000
1F07C000
1F87C000
1F8FC000
0F8FC000
0F8F8000
0F8F8000
0FCF8000
07DF8000
07DF0000
07DF0000
07FF0000
03FF0000
03FF0000
03FE0000
03FE0000
01FE0000
ENDCHAR
STARTCHAR infinity
ENCODING 8734
SWIDTH 539 0
DWIDTH 34 0
BBX 33 21 1 9
BITMAP
0FFC1FF800
3FFE3FFC00
7FFF7FFE00
7FFFFFFF00
7E0FF83F00
FC07F01F00
F807E01F80
F803E00F80
F803E00F80
F803E00F80
F803E00F80
F803E00F80
F803E00F80
F807E01F80
F807E01F00
FC0FF01F00
7FFFFFFF00
7FFFFFFE00
3FFF7FFE00
1FFE3FFC00
07F80FE000
ENDCHAR
STARTCHAR uni2224
ENCODING 8740
SWIDTH 539 0
DWIDTH 34 0
BBX 6 6 14 17
BITMAP
FC
FC
FC
FC
FC
FC
ENDCHAR
STARTCHAR logicaland
ENCODING 8743
SWIDTH 539 0
DWIDTH 34 0
BBX 6 6 14 17
BITMAP
FC
FC
FC
FC
FC
FC
ENDCHAR
STARTCHAR integral
ENCODING 8747
SWIDTH 539 0
DWIDTH 34 0
BBX 26 67 4 -15
BITMAP
0007FFC0
000FFFC0
001FFFC0
001FFFC0
001F8000
003F0000
003F0000
003F0000
003F0000
003F0000
003F0000
003F0000
003F0000
003F0000
003F0000
003F0000
003F0000
003F0000
003F0000
003F0000
003F0000
003F0000
003F0000
003F0000
003F0000
003F0000
003F0000
003F0000
003F0000
003F0000
003F0000
003F0000
003F0000
003F0000
003F0000
003F0000
003F0000
003F0000
003F0000
003F0000
003F0000
003F0000
003F0000
003F0000
003F0000
003F0000
003F0000
003F0000
003F0000
003F0000
003F0000
003F0000
003F0000
003F0000
003F0000
003F0000
003F0000
003F0000
003F0000
003F0000
003F0000
003F0000
FFFF0000
FFFE0000
FFFE0000
FFFC0000
FFF00000
ENDCHAR
STARTCHAR approxequal
ENCODING 8776
SWIDTH 539 0
DWIDTH 34 0
BBX 22 18 6 11
BITMAP
0FE004
7FF81C
FFFFFC
FFFFFC
FFFFFC
F03FF8
C007E0
000000
000000
000000
010000
1FE004
7FFC3C
FFFFFC
FFFFFC
FFFFFC
F01FF8
8007E0
ENDCHAR
STARTCHAR notequal
ENCODING 8800
SWIDTH 539 0
DWIDTH 34 0
BBX 24 32 5 4
BITMAP
00001F
00001F
00003E
00007E
00007C
0000F8
0000F8
FFFFFF
FFFFFF
FFFFFF
FFFFFF
FFFFFF
000F80
001F00
001F00
003E00
007E00
007C00
00F800
00F800
FFFFFF
FFFFFF
FFFFFF
FFFFFF
FFFFFF
0F8000
1F0000
1F0000
3E0000
7E0000
7C0000
F80000
ENDCHAR
STARTCHAR lessequal
ENCODING 8804
SWIDTH 539 0
DWIDTH 34 0
BBX 24 36 5 0
BITMAP
000001
000007
00001F
00007F
0001FF
0007FF
003FFE
00FFF8
03FFC0
0FFF00
3FFC00
FFF000
FF8000
FE0000
F80000
FE0000
FFC000
FFF800
7FFE00
0FFFC0
03FFF8
007FFE
001FFF
0007FF
0000FF
00003F
000007
000001
000000
000000
000000
FFFFFF
FFFFFF
FFFFFF
FFFFFF
FFFFFF
ENDCHAR
STARTCHAR greaterequal
ENCODING 8805
SWIDTH 539 0
DWIDTH 34 0
BBX 24 36 5 0
BITMAP
800000
F00000
FC0000
FF0000
FFC000
FFF000
3FFC00
0FFF00
03FFC0
007FF0
001FFE
0007FF
0001FF
00003F
00000F
00007F
0001FF
000FFF
007FFE
01FFF8
0FFFE0
7FFF00
FFFC00
FFE000
FF8000
FC0000
F00000
800000
000000
000000
000000
FFFFFF
FFFFFF
FFFFFF
FFFFFF
FFFFFF
ENDCHAR
STARTCHAR dotmath
ENCODING 8901
SWIDTH 539 0
DWIDTH 34 0
BBX 6 6 14 17
BITMAP
FC
FC
FC
FC
FC
FC
ENDCHAR
STARTCHAR uni25AF
ENCODING 9647
SWIDTH 539 0
DWIDTH 34 0
BBX 24 45 5 0
BITMAP
FFFFFF
FFFFFF
FFFFFF
FFFFFF
FFFFFF
F8001F
F8001F
F8001F
F8001F
F8001F
F8001F
F8001F
F8001F
F8001F
F8001F
F8001F
F8001F
F8001F
F8001F
F8001F
F8001F
F8001F
F8001F
F8001F
F8001F
F8001F
F8001F
F8001F
F8001F
F8001F
F8001F
F8001F
F8001F
F8001F
F8001F
F8001F
F8001F
F8001F
F8001F
F8001F
FFFFFF
FFFFFF
FFFFFF
FFFFFF
FFFFFF
ENDCHAR
STARTCHAR lozenge
ENCODING 9674
SWIDTH 539 0
DWIDTH 34 0
BBX 25 45 5 0
BITMAP
007F0000
00FF0000
00FF8000
01FF8000
01FFC000
01F7C000
03F7C000
03E7E000
07E3E000
07C3F000
07C1F000
0FC1F000
0F81F800
1F80F800
1F80FC00
1F00FC00
3F007C00
3E007E00
7E003E00
7E003F00
7C003F00
FC001F00
F8001F80
FC001F00
7C003F00
7C003F00
7E003E00
3E007E00
3F007C00
1F007C00
1F00FC00
1F80F800
0F81F800
0FC1F000
0FC1F000
07C3F000
07E3E000
03E7E000
03E7C000
03F7C000
01FFC000
01FF8000
00FF8000
00FF0000
00FF0000
ENDCHAR
STARTCHAR uni2620
ENCODING 9760
SWIDTH 539 0
DWIDTH 34 0
BBX 38 34 -2 1
BITMAP
0000100000
0001FF0000
0007FFC000
000FFFE000
001FFFF000
003FFFF000
003FFFF800
007FFFF800
007FFFF800
007FFFFC00
007FFFFC00
007FFFFC00
1C78FC3870
1C707C3870
1C307818F0
1E307C38F0
7F18FC73F8
FF1FEFF3FC
FF1FC7F3BC
611F87F208
001F83E000
000793C000
0007FFC000
0003FF8000
0023FF0800
10F1FF1E10
7FF0003FF8
7FE0000FF8
3F800007F0
0F000001E0
0F000001C0
0F000001E0
0E000001C0
0400000080
ENDCHAR
STARTCHAR smileface
ENCODING 9786
SWIDTH 539 0
DWIDTH 34 0
BBX 35 35 0 0
BITMAP
0000400000
001FFE0000
007FFF8000
01FFFFE000
03F807F000
07E000F800
0F80007C00
1F00003E00
1E00001F00
3C00000F00
3C3C0F0780
787E0F8780
787E1F83C0
F07E1F83C0
F07E0F83C0
F03C0701C0
F0000001E0
F0000001E0
F0000001E0
F0000001C0
F0E001C3C0
F0F001C3C0
787003C3C0
78780383C0
783C078780
3C1FFF0F80
3E0FFE0F00
1F03F81F00
0F80003E00
07C0007C00
03F001F800
01FF1FF000
00FFFFC000
003FFF0000
0007F80000
ENDCHAR
STARTCHAR invsmileface
ENCODING 9787
SWIDTH 539 0
DWIDTH 34 0
BBX 35 35 0 0
BITMAP
0000400000
001FFE0000
007FFF8000
01FFFFE000
03FFFFF000
07FFFFF800
0FFFFFFC00
1FFFFFFE00
1FFFFFFF00
3FFFFFFF00
3FC3F07F80
7F81F07F80
7F81F03FC0
FF81F07FC0
FF83F07FC0
FFEFFDFFC0
FFFFFFFFE0
FFFFFFFFE0
FFFFFFFFE0
FFFFFFFFC0
FF1FFF1FC0
FF1FFE3FC0
7F8FFE3FC0
7F8FFC3FC0
7FC7F87F80
3FC0C0FF80
3FF001FF00
1FF807FF00
0FFFFFFE00
07FFFFFC00
03FFFFF800
01FFFFF000
00FFFFC000
003FFF0000
0007F80000
ENDCHAR
STARTCHAR sun
ENCODING 9788
SWIDTH 539 0
DWIDTH 34 0
BBX 35 34 0 0
BITMAP
0000E00000
0000E00000
0000E00000
0000E00000
0600E01800
0F00E03E00
0F80E07C00
07C3F8F800
03EFFEF000
01FFFFE000
007C0FC000
007803C000
00F001C000
00E001E000
01E000E000
01C000E000
FFC000FFE0
FFC000FFE0
FFC000FFE0
01E000E000
00E000E000
00F001E000
007803C000
00FC07C000
01FFFFE000
03EFFEF000
07C3F87800
0F80E03C00
0F00E01E00
0600E00800
0000E00000
0000E00000
0000E00000
0000E00000
ENDCHAR
STARTCHAR female
ENCODING 9792
SWIDTH 539 0
DWIDTH 34 0
BBX 21 35 7 0
BITMAP
002000
03FE00
0FFF00
1FDFC0
3C03C0
7801E0
7000F0
F00070
F00070
E00070
E00078
E00070
E00070
F00070
7000F0
7801E0
3C03E0
1F0FC0
0FFF80
07FE00
007000
007000
007000
007000
007000
007000
1FFFC0
1FFFC0
007000
007000
007000
007000
007000
007000
007000
ENDCHAR
STARTCHAR male
ENCODING 9794
SWIDTH 539 0
DWIDTH 34 0
BBX 31 31 2 0
BITMAP
0000FFFC
0000FFFC
0000FFFC
0000007C
000000FC
000001EC
000003DC
0000079C
00000F0C
00001E0C
00003C0C
01F8780E
07FFF00E
1FFFE00E
3E07C000
3C01E000
7800E000
7000F000
F0007000
E0007000
E0007000
E0007000
E0007000
F0007000
F000F000
7800E000
7801E000
3E07C000
1FFF8000
07FF0000
01F80000
ENDCHAR
STARTCHAR spade
ENCODING 9824
SWIDTH 539 0
DWIDTH 34 0
BBX 29 35 3 0
BITMAP
00020000
00060000
000F0000
001F8000
003FE000
007FF000
00FFF800
01FFFC00
03FFFE00
07FFFF00
0FFFFF80
1FFFFF80
3FFFFFC0
3FFFFFE0
7FFFFFE0
7FFFFFF0
FFFFFFF0
FFFFFFF8
FFFFFFF8
FFFFFFF8
FFFFFFF8
FFFFFFF8
FFFEFFF8
FFF7FFF0
7FE77FE0
3FC71FC0
00070000
000F0000
000F0000
000F0000
000F0000
3FFFFFE0
7FFFFFE0
FFFFFFF0
FFFFFFF8
ENDCHAR
STARTCHAR club
ENCODING 9827
SWIDTH 539 0
DWIDTH 34 0
BBX 29 35 3 0
BITMAP
00020000
003FE000
00FFF000
01FFF800
01FFFC00
01FFFC00
01FFFC00
01FFFC00
01FFFC00
01FFF800
00FFF800
00FFF000
0F7FEF00
3FFFFFE0
7FFFFFF0
FFFFFFF0
FFFFFFF8
FFFFFFF8
FFFFFFF8
FFFFFFF8
FFFFFFF8
FFFFFFF8
FFFEFFF0
7FF7FFF0
7FE77FE0
1FC71FC0
00070000
000F0000
000F0000
000F0000
000F0000
3FFFFFE0
7FFFFFE0
FFFFFFF0
FFFFFFF8
ENDCHAR
STARTCHAR heart
ENCODING 9829
SWIDTH 539 0
DWIDTH 34 0
BBX 32 35 1 0
BITMAP
01000080
0FF007F8
1FF81FFC
3FFC3FFE
7FFE3FFE
7FFF7FFF
FFFF7FFF
FFFFFFFF
FFFFFFFF
FFFFFFFF
FFFFFFFF
7FFFFFFF
7FFFFFFF
7FFFFFFE
3FFFFFFE
3FFFFFFE
1FFFFFFC
1FFFFFF8
0FFFFFF8
0FFFFFF0
07FFFFF0
03FFFFE0
03FFFFC0
01FFFFC0
00FFFF80
00FFFF00
007FFE00
003FFC00
001FFC00
000FF800
0007F000
0007E000
0003C000
0001C000
00008000
ENDCHAR
STARTCHAR diamond
ENCODING 9830
SWIDTH 539 0
DWIDTH 34 0
BBX 25 36 5 -1
BITMAP
00080000
00080000
001C0000
003C0000
007E0000
007F0000
00FF8000
01FF8000
01FFC000
03FFE000
07FFE000
0FFFF000
0FFFF800
1FFFFC00
3FFFFC00
7FFFFE00
7FFFFF00
FFFFFF80
FFFFFF00
7FFFFF00
3FFFFE00
3FFFFC00
1FFFFC00
0FFFF800
0FFFF000
07FFF000
03FFE000
03FFC000
01FF8000
00FF8000
007F0000
007E0000
003E0000
001C0000
00180000
00080000
ENDCHAR
STARTCHAR musicalnote
ENCODING 9834
SWIDTH 539 0
DWIDTH 34 0
BBX 23 35 6 -1
BITMAP
001E00
001F00
001FC0
001FE0
001FF0
001CF8
001C7C
001C3C
001C1E
001C1E
001C1E
001C1E
001C0C
001C0C
001C0C
001C00
001C00
001C00
001C00
001C00
001C00
001C00
001C00
001C00
001C00
1FFC00
3FFC00
7FFC00
FFFC00
FFFC00
FFFC00
FFFC00
FFF800
7FE000
0F8000
ENDCHAR
STARTCHAR musicalnotedbl
ENCODING 9835
SWIDTH 539 0
DWIDTH 34 0
BBX 33 38 1 -1
BITMAP
0000000180
0000001F80
000001FF80
00001FFF80
0000FFFF80
000FFFFB80
001FFF8380
001FF80380
001F800380
001E000380
001E000380
001E000380
001E000380
001E000380
001E000380
001E000380
001E000380
001E000380
001E000380
001E000380
001E000380
001E000380
001E000380
001E000380
001E007380
001E07FF80
001E0FFF80
001E1FFF80
1FFE3FFF80
3FFE3FFF80
7FFE3FFF00
FFFE3FFF00
FFFE1FFE00
FFFC0FF800
FFFC008000
7FF8000000
7FE0000000
0F80000000
ENDCHAR
STARTCHAR fi
ENCODING 64257
SWIDTH 1079 0
DWIDTH 69 0
BBX 58 45 6 0
BITMAP
003FFC00001F8000
00FFFC00001F8000
01FFFC00001F8000
01FFFC00001F8000
03FFFC00001F8000
03F00000001F8000
03E0000000000000
03E0000000000000
03E0000000000000
03E0000000000000
03E0000000000000
03E0000000000000
03E0000000000000
FFFFFC003FFF8000
FFFFFC003FFF8000
FFFFFC003FFF8000
FFFFFC003FFF8000
FFFFFC003FFF8000
03E00000001F8000
03E00000001F8000
03E00000001F8000
03E00000001F8000
03E00000001F8000
03E00000001F8000
03E00000001F8000
03E00000001F8000
03E00000001F8000
03E00000001F8000
03E00000001F8000
03E00000001F8000
03E00000001F8000
03E00000001F8000
03E00000001F8000
03E00000001F8000
03E00000001F8000
03E00000001F8000
03E00000001F8000
03E00000001F8000
03E00000001F8000
03E00000001F8000
FFFFE000001FFFC0
FFFFE000001FFFC0
FFFFE000001FFFC0
FFFFE000001FFFC0
FFFFE000001FFFC0
ENDCHAR
STARTCHAR fl
ENCODING 64258
SWIDTH 1079 0
DWIDTH 69 0
BBX 59 45 6 0
BITMAP
003FFC007FFF0000
00FFFC007FFF0000
01FFFC007FFF0000
01FFFC007FFF0000
03FFFC007FFF0000
03F00000003F0000
03E00000003F0000
03E00000003F0000
03E00000003F0000
03E00000003F0000
03E00000003F0000
03E00000003F0000
03E00000003F0000
FFFFFC00003F0000
FFFFFC00003F0000
FFFFFC00003F0000
FFFFFC00003F0000
FFFFFC00003F0000
03E00000003F0000
03E00000003F0000
03E00000003F0000
03E00000003F0000
03E00000003F0000
03E00000003F0000
03E00000003F0000
03E00000003F0000
03E00000003F0000
03E00000003F0000
03E00000003F0000
03E00000003F0000
03E00000003F0000
03E00000003F0000
03E00000003F0000
03E00000003F0000
03E00000003F0000
03E00000003F0000
03E00000003F0000
03E00000003F0000
03E00000003F0000
03E00000003F0000
FFFFE000001FFFE0
FFFFE000001FFFE0
FFFFE000001FFFE0
FFFFE000000FFFE0
FFFFE0000003FFE0
ENDCHAR
STARTCHAR .notdef
ENCODING -1
SWIDTH 539 0
DWIDTH 34 0
BBX 24 45 5 0
BITMAP
FFFFFF
FFFFFF
FFFFFF
FFFFFF
FFFFFF
F8001F
F8001F
F8001F
F8001F
F8001F
F8001F
F8001F
F8001F
F8001F
F8001F
F8001F
F8001F
F8001F
F8001F
F8001F
F8001F
F8001F
F8001F
F8001F
F8001F
F8001F
F8001F
F8001F
F8001F
F8001F
F8001F
F8001F
F8001F
F8001F
F8001F
F8001F
F8001F
F8001F
F8001F
F8001F
FFFFFF
FFFFFF
FFFFFF
FFFFFF
FFFFFF
ENDCHAR
ENDFONT
